<?xml version="1.0" encoding="UTF-8"?>
<svg version="1.1" xmlns="http://www.w3.org/2000/svg" width="128" height="128">
<path d="M0 0 C42.24 0 84.48 0 128 0 C128 42.24 128 84.48 128 128 C85.76 128 43.52 128 0 128 C0 85.76 0 43.52 0 0 Z " fill="#E7E7E7" transform="translate(0,0)"/>
<path d="M0 0 C42.24 0 84.48 0 128 0 C128 42.24 128 84.48 128 128 C119.42 128 110.84 128 102 128 C101.01 124.04 101.01 124.04 100 120 C101.26953125 118.35546875 101.26953125 118.35546875 103 117 C104.00503551 114.27976977 104.00503551 114.27976977 104.6875 111.3125 C104.93886719 110.31863281 105.19023438 109.32476562 105.44921875 108.30078125 C105.63097656 107.54152344 105.81273438 106.78226562 106 106 C106.66 106.33 107.32 106.66 108 107 C108 110.3 108 113.6 108 117 C109.32 116.67 110.64 116.34 112 116 C112.33 116.33 112.66 116.66 113 117 C114.99294413 113.01411173 114.51807631 108.33300188 114 104 C112.75231321 100.98834222 110.97967204 98.57564661 109 96 C104.01587235 89.20227616 100.27543297 82.1734458 98 74 C98.495 72.515 98.495 72.515 99 71 C99.66 72.32 100.32 73.64 101 75 C100.47731534 72.23723823 99.89130413 69.6739124 99 67 C99.3055583 65.66002873 99.64270064 64.32711192 100 63 C100.11424167 61.29434533 100.17474307 59.58442864 100.1875 57.875 C100.20167969 57.00617187 100.21585937 56.13734375 100.23046875 55.2421875 C100.21743605 52.79670274 100.21743605 52.79670274 98 51 C97.51814452 48.53783603 97.1159928 46.1040941 96.75 43.625 C95.13152422 33.92398076 91.62079985 25.42293522 85 18 C75.29638056 13.23330975 64.08675075 12.30304002 53.5625 15.125 C41.12932274 19.70674036 35.5632681 28.19247174 30.16796875 39.875 C26.36626357 48.68440892 24.33645102 57.37978654 26 67 C27.485 67.99 27.485 67.99 29 69 C28.23587913 70.12956998 27.46340197 71.25348978 26.6875 72.375 C26.25824219 73.00148438 25.82898438 73.62796875 25.38671875 74.2734375 C24 76 24 76 21 78 C20.7009375 78.93585938 20.401875 79.87171875 20.09375 80.8359375 C18.83120003 84.4883142 17.32262864 86.03148083 14.5 88.625 C10.00232237 92.7868121 7.91757611 95.60080405 7.375 101.75 C7.30023437 102.54921875 7.22546875 103.3484375 7.1484375 104.171875 C7.09945313 104.77515625 7.05046875 105.3784375 7 106 C8.32 106.33 9.64 106.66 11 107 C11.99 110.465 11.99 110.465 13 114 C13.66 112.68 14.32 111.36 15 110 C18.07692308 114.30769231 18.07692308 114.30769231 17.6875 117.8125 C17.3471875 118.8953125 17.3471875 118.8953125 17 120 C17.66 120 18.32 120 19 120 C19.66 120 20.32 120 21 120 C20.34099246 123.07536854 19.46132217 125.07735566 18 128 C12.06 128 6.12 128 0 128 C0 85.76 0 43.52 0 0 Z " fill="#FDFDFD" transform="translate(0,0)"/>
<path d="M0 0 C0.66 0.33 1.32 0.66 2 1 C2.625 3.5625 2.625 3.5625 3 6 C3.66 6 4.32 6 5 6 C5 6.99 5 7.98 5 9 C5.66 9 6.32 9 7 9 C7 8.34 7 7.68 7 7 C7.66 7.33 8.32 7.66 9 8 C9 8.99 9 9.98 9 11 C9.64290962 16.143277 13.16919512 19.07426713 16.9453125 22.30859375 C22.23918977 25.23985828 27.27090505 24.23022885 33 23 C29.28125 27.8984375 29.28125 27.8984375 26.75 28.8125 C26.1725 28.874375 25.595 28.93625 25 29 C25 29.66 25 30.32 25 31 C24.0409375 31.433125 24.0409375 31.433125 23.0625 31.875 C20.84793921 32.82823451 20.84793921 32.82823451 20 35 C20.7425 34.938125 21.485 34.87625 22.25 34.8125 C25.45383006 35.03094296 26.64031256 35.90250005 29 38 C30.32 37.34 31.64 36.68 33 36 C32.71382812 36.68964844 32.42765625 37.37929687 32.1328125 38.08984375 C31.3509491 40.09842387 30.64124293 42.13606406 29.9921875 44.19140625 C27.02006961 53.15972002 27.02006961 53.15972002 23.89453125 55.734375 C21.6875 56.8125 21.6875 56.8125 18 58 C19.43554025 57.49440092 20.8735202 56.9957251 22.3125 56.5 C23.11300781 56.2215625 23.91351563 55.943125 24.73828125 55.65625 C27 55 27 55 30 55 C30 55.99 30 56.98 30 58 C30.66 58 31.32 58 32 58 C31.96519531 57.34773438 31.93039063 56.69546875 31.89453125 56.0234375 C31.68245429 49.17638122 32.44421967 44.94301977 37.0625 39.625 C39 38 39 38 41 38 C41.4021875 37.1646875 41.4021875 37.1646875 41.8125 36.3125 C43 34 43 34 44.5 31.625 C46.10195874 28.82157221 47.06768027 26.0838268 48 23 C48.99 24.98 48.99 24.98 50 27 C50.99 25.515 50.99 25.515 52 24 C51.99097656 24.556875 51.98195313 25.11375 51.97265625 25.6875 C52.21551284 31.9384175 54.02609671 34.72174131 58.34375 39.13671875 C60.4756824 41.5351427 61.30113371 43.89392761 62 47 C62.66 45.68 63.32 44.36 64 43 C65.6210886 46.2421772 64.90555177 49.7082525 64.7421875 53.2734375 C65.03932607 56.41590295 65.91105779 57.69232038 68 60 C68.66 58.35 69.32 56.7 70 55 C70.625 56.8125 70.625 56.8125 71 59 C70.34 59.99 69.68 60.98 69 62 C68.34 62 67.68 62 67 62 C67.33 62.763125 67.66 63.52625 68 64.3125 C69 67 69 67 69 70 C41.28 70 13.56 70 -15 70 C-14.01 67.36 -13.02 64.72 -12 62 C-13.98 62.66 -15.96 63.32 -18 64 C-17.34 63.01 -16.68 62.02 -16 61 C-16.32126128 58.36565746 -16.81355048 56.37289903 -18 54 C-18.66 54.99 -19.32 55.98 -20 57 C-21.9451 54.08235 -22.45276317 52.37462715 -23 49 C-23.99 48.67 -24.98 48.34 -26 48 C-26.50357561 41.70530487 -26.25420831 37.99869477 -22 33 C-20.63087304 31.66063667 -19.25542404 30.32771694 -17.875 29 C-14.55767251 25.79263917 -13.28897233 23.4618273 -12 19 C-9.5 16.3125 -9.5 16.3125 -7 14 C-6.34 13.01 -5.68 12.02 -5 11 C-5.99 10.34 -6.98 9.68 -8 9 C-7.67 8.01 -7.34 7.02 -7 6 C-5.35 5.67 -3.7 5.34 -2 5 C-2 11.60273777 -5.04706887 15.19860336 -9.08984375 20.25390625 C-11.09088755 23.13066247 -11.93783512 25.68408189 -13 29 C-14.40234375 31.1171875 -14.40234375 31.1171875 -15.9375 32.875 C-16.44152344 33.47054687 -16.94554687 34.06609375 -17.46484375 34.6796875 C-19 36 -19 36 -22 36 C-23.75547734 38.6848477 -24.00627277 39.92002215 -23.75 43.1875 C-23.37875 44.5796875 -23.37875 44.5796875 -23 46 C-22.34 46.33 -21.68 46.66 -21 47 C-20.67 45.68 -20.34 44.36 -20 43 C-21.485 43.495 -21.485 43.495 -23 44 C-22.75 42.125 -22.75 42.125 -22 40 C-19.9375 38.75 -19.9375 38.75 -18 38 C-17.67 40.64 -17.34 43.28 -17 46 C-16.01 46.33 -15.02 46.66 -14 47 C-15.485 47.495 -15.485 47.495 -17 48 C-16.34 50.31 -15.68 52.62 -15 55 C-12.87785153 52.87785153 -13.05933843 48.73033982 -12.59765625 45.859375 C-12.01166516 43.05580977 -11.1426727 40.62001942 -10 38 C-11.65 38 -13.3 38 -15 38 C-11.71195019 35.08772731 -9.40114397 33.50298788 -5 33 C-5.309375 33.53625 -5.61875 34.0725 -5.9375 34.625 C-7.17827439 37.3984957 -7.5909675 40.00042837 -8 43 C-7.69707031 42.33613281 -7.39414062 41.67226562 -7.08203125 40.98828125 C-4.60981007 35.77759968 -2.3451795 31.89952006 2 28 C5.34409901 24.37722607 6.54158403 21.92797169 7 17 C6.01 17.495 6.01 17.495 5 18 C5.33 15.69 5.66 13.38 6 11 C5.01 12.485 5.01 12.485 4 14 C3.67 12.02 3.34 10.04 3 8 C2.44572114 10.07499264 1.98549538 12.09961003 1.67578125 14.2265625 C0.62304536 21.17688335 -2.08515954 26.21391504 -6 32 C-6.33 31.34 -6.66 30.68 -7 30 C-6.05004883 28.22485352 -6.05004883 28.22485352 -4.64453125 26.06640625 C-1.56989172 20.75837239 -1.03655964 15.98085787 -0.6875 9.9375 C-0.61466797 8.97650391 -0.54183594 8.01550781 -0.46679688 7.02539062 C-0.29208498 4.6842512 -0.13687846 2.34360289 0 0 Z " fill="#4C4C4C" transform="translate(33,58)"/>
<path d="M0 0 C0.33 0.66 0.66 1.32 1 2 C0.34 2.66 -0.32 3.32 -1 4 C0.134375 4.28875 1.26875 4.5775 2.4375 4.875 C3.613125 5.24625 4.78875 5.6175 6 6 C6.495 6.99 6.495 6.99 7 8 C4.69 7.67 2.38 7.34 0 7 C1.32 8.32 2.64 9.64 4 11 C3.67 11.66 3.34 12.32 3 13 C2.21625 12.175 1.4325 11.35 0.625 10.5 C-1.63721264 7.77011494 -1.63721264 7.77011494 -4 8 C-4.09928082 15.75493514 -4.06059488 23.31068715 -3 31 C-2.05125 30.95875 -1.1025 30.9175 -0.125 30.875 C3 31 3 31 5 33 C1.535 32.505 1.535 32.505 -2 32 C-0.21168225 35.05763218 -0.21168225 35.05763218 2 38 C2.99 38 3.98 38 5 38 C7.125 39.9375 7.125 39.9375 9 42 C9.33 42.33 9.66 42.66 10 43 C10 40.69 10 38.38 10 36 C9.34 36 8.68 36 8 36 C7.67 37.32 7.34 38.64 7 40 C5.35 31.42 3.7 22.84 2 14 C2.66 14 3.32 14 4 14 C6.45967003 19.81376552 7.61319345 25.19190439 8.375 31.4609375 C8.78101751 34.34176395 8.78101751 34.34176395 12 36 C12.6875 39.625 12.6875 39.625 13 43 C14.32 43 15.64 43 17 43 C16.855625 41.700625 16.71125 40.40125 16.5625 39.0625 C16.48128906 38.33160156 16.40007812 37.60070313 16.31640625 36.84765625 C16.18113386 34.98859771 16.18113386 34.98859771 15 34 C14.7006038 31.64929515 14.43593352 29.29413577 14.1875 26.9375 C13.47414403 20.85417883 12.18945403 16.24716631 9 11 C8.505 10.01 8.505 10.01 8 9 C12.65207298 10.8276001 14.94575718 14.09232252 17.3125 18.375 C18.21403289 21.81721647 17.67813812 24.54149558 17 28 C17.66 27.67 18.32 27.34 19 27 C19.268125 27.928125 19.53625 28.85625 19.8125 29.8125 C20.94480421 32.85184289 21.69900511 33.90073617 24 36 C23.84815409 27.19293711 20.09418527 20.55618016 16 13 C15.505 12.01 15.505 12.01 15 11 C18.63328617 12.45016194 20.11741577 14.22192317 22.1875 17.5 C22.69667969 18.2940625 23.20585938 19.088125 23.73046875 19.90625 C25.69383149 23.14428825 26.22420103 25.35538287 26.5625 29.125 C26.64628906 30.03507812 26.73007813 30.94515625 26.81640625 31.8828125 C26.90728516 32.93082031 26.90728516 32.93082031 27 34 C28.65 34 30.3 34 32 34 C31.5153125 33.60941406 31.030625 33.21882813 30.53125 32.81640625 C28.53368451 30.44684515 28.60600153 29.0071277 28.5 25.9375 C28.14621097 20.29193044 26.83823499 15.32972534 25 10 C30.51066674 14.46101594 31.52834261 21.70980284 32.5625 28.3125 C33.17720904 33.64051889 33.17720904 33.64051889 36 38 C36.23046875 40.171875 36.23046875 40.171875 36.1875 42.75 C36.17332031 43.64332031 36.15914062 44.53664062 36.14453125 45.45703125 C36 48 36 48 35.375 51.4375 C34.67356001 54.23545234 34.67356001 54.23545234 37 57 C37.125 60.1875 37.125 60.1875 37 63 C36.34 62.01 35.68 61.02 35 60 C37.8004474 69.42589611 41.47896212 77.59774078 48 85 C49.99817265 88.22621627 50.29710491 90.79070325 50.3125 94.5625 C50.32925781 95.51253906 50.34601563 96.46257812 50.36328125 97.44140625 C50 100 50 100 48.66796875 101.83984375 C47 103 47 103 44 103 C43.34 102.67 42.68 102.34 42 102 C42 98.7 42 95.4 42 92 C41.34 93.98 40.68 95.96 40 98 C39.34 98 38.68 98 38 98 C37.34 99.98 36.68 101.96 36 104 C33.34493073 101.59384348 32.07835303 99.82040233 31.734375 96.21875 C31.74854556 93.46966145 31.82703313 90.74344679 32 88 C31.34 88.99 30.68 89.98 30 91 C29.46375 89.824375 28.9275 88.64875 28.375 87.4375 C26.49834026 83.65066875 24.247563 80.71501543 21.3671875 77.640625 C19.8808239 75.85698868 18.96731251 74.10432896 18 72 C17.62875 71.2575 17.2575 70.515 16.875 69.75 C16.58625 69.1725 16.2975 68.595 16 68 C15.38125 69.546875 15.38125 69.546875 14.75 71.125 C12.60357132 76.07676105 10.16795581 80.20960751 5.875 83.5625 C0.72945813 87.92502463 0.69135505 92.57623782 0.1484375 98.98828125 C0.09945312 99.65214844 0.05046875 100.31601563 0 101 C-0.66 101 -1.32 101 -2 101 C-2.495 100.01 -2.495 100.01 -3 99 C-7.68738665 99.90723613 -12.34193744 100.9547267 -17 102 C-15 100 -15 100 -11.1875 99.1875 C-7.89652301 98.04670761 -7.11755971 97.21840893 -5.43359375 94.08984375 C-4.17344977 90.75328343 -3.06317125 87.40379632 -2 84 C-1.34200559 82.32989055 -0.67699642 80.66249754 0 79 C0.309375 78.01 0.61875 77.02 0.9375 76 C2 73 2 73 3.5 70.5625 C5.31149482 67.46786301 6.11774735 64.46599253 7 61 C7.20625 60.195625 7.4125 59.39125 7.625 58.5625 C7.810625 57.7890625 7.810625 57.7890625 8 57 C6.68 57 5.36 57 4 57 C4 56.34 4 55.68 4 55 C4.639375 54.4225 5.27875 53.845 5.9375 53.25 C8.44350418 50.51617726 8.66980509 48.63214398 9 45 C8.01 45.495 8.01 45.495 7 46 C6.7525 46.99 6.7525 46.99 6.5 48 C6.2525 48.99 6.2525 48.99 6 50 C5.01 50.495 5.01 50.495 4 51 C3.67 50.01 3.34 49.02 3 48 C1.68 48 0.36 48 -1 48 C-1.495 45.525 -1.495 45.525 -2 43 C-2.88751953 43.08701172 -2.88751953 43.08701172 -3.79296875 43.17578125 C-8.32303052 43.43443078 -10.32186981 43.51205749 -14.0625 40.6875 C-16 38 -16 38 -16 35 C-15.01 35 -14.02 35 -13 35 C-11.375 37.5 -11.375 37.5 -10 40 C-9.67 40 -9.34 40 -9 40 C-9.33 39.01 -9.66 38.02 -10 37 C-10.25782805 33.25446163 -10.23139543 29.50347232 -10.25 25.75 C-10.270625 24.72519531 -10.29125 23.70039062 -10.3125 22.64453125 C-10.3434977 16.62322872 -9.86008581 12.32879146 -7 7 C-9.56229028 9.27677793 -10.80703414 11.41287292 -12.125 14.5625 C-12.45757812 15.34753906 -12.79015625 16.13257812 -13.1328125 16.94140625 C-13.41898438 17.62074219 -13.70515625 18.30007812 -14 19 C-14.33 19.66 -14.66 20.32 -15 21 C-15.22950319 23.204364 -15.41075933 25.41392173 -15.5625 27.625 C-15.64628906 28.81351563 -15.73007812 30.00203125 -15.81640625 31.2265625 C-15.87699219 32.14179687 -15.93757813 33.05703125 -16 34 C-16.33 34 -16.66 34 -17 34 C-17.33 30.7 -17.66 27.4 -18 24 C-21.91653966 30.80127913 -21.91653966 30.80127913 -25 38 C-24.29875 37.731875 -23.5975 37.46375 -22.875 37.1875 C-19.53988725 36.96999265 -19.13449613 37.36830612 -16.6875 39.4375 C-15.800625 40.283125 -14.91375 41.12875 -14 42 C-14.495 44.475 -14.495 44.475 -15 47 C-16.32 46.67 -17.64 46.34 -19 46 C-19.33 46.66 -19.66 47.32 -20 48 C-22 46 -22 46 -22.125 42.875 C-22.08375 41.92625 -22.0425 40.9775 -22 40 C-23.32 40.99 -24.64 41.98 -26 43 C-27.58531685 41.41468315 -27.28479578 39.82459526 -27.375 37.625 C-27.35680651 31.33005138 -24.9112071 26.46891049 -22 21 C-21.67 21.66 -21.34 22.32 -21 23 C-17.07117781 20.83237396 -16.31028755 18.30239914 -14.89453125 14.19140625 C-12.5679305 8.49174241 -9.13992824 4.27210552 -3.625 1.5 C-2.42875 1.005 -1.2325 0.51 0 0 Z " fill="#C3C3C3" transform="translate(65,15)"/>
<path d="M0 0 C0.99 0.33 1.98 0.66 3 1 C2.360625 1.5775 1.72125 2.155 1.0625 2.75 C-3.35641412 7.57063358 -2.18367146 14.25440875 -2.1875 20.4375 C-2.20586914 21.99307617 -2.20586914 21.99307617 -2.22460938 23.58007812 C-2.22654297 24.58361328 -2.22847656 25.58714844 -2.23046875 26.62109375 C-2.23663208 27.98899048 -2.23663208 27.98899048 -2.24291992 29.38452148 C-1.97773789 32.23969245 -1.18352444 34.40164055 0 37 C-2.46800047 35.84826645 -4.04783565 34.95216435 -6 33 C-6 32.01 -6 31.02 -6 30 C-6.99 30 -7.98 30 -9 30 C-7.75023244 33.65316671 -7.32901247 34.78065836 -4 37 C-2.845 36.979375 -1.69 36.95875 -0.5 36.9375 C3 37 3 37 4.9375 38.3125 C6 40 6 40 6 43 C7.98 42.505 7.98 42.505 10 42 C10.66 42.99 11.32 43.98 12 45 C12.66 43.68 13.32 42.36 14 41 C13.01 40.505 13.01 40.505 12 40 C13.32 40 14.64 40 16 40 C16.75 41.625 16.75 41.625 17 44 C15.50594347 46.5398961 14.09462345 48.90537655 12 51 C12.99 51.33 13.98 51.66 15 52 C14.68676972 53.67056149 14.34665557 55.33605325 14 57 C13.773125 58.216875 13.54625 59.43375 13.3125 60.6875 C11.73660285 66.95527277 8.41217416 73.3918839 3 77 C3 76.34 3 75.68 3 75 C0.36 74.34 -2.28 73.68 -5 73 C-4.67 72.01 -4.34 71.02 -4 70 C-1.9375 69.3125 -1.9375 69.3125 0 69 C0 68.34 0 67.68 0 67 C1.96722008 65.61876037 3.96868328 64.28511874 6 63 C6.33 62.67 6.66 62.34 7 62 C6.26136719 62.18820313 5.52273437 62.37640625 4.76171875 62.5703125 C-0.35985225 63.4944079 -3.63233992 63.81527183 -8.2109375 61.0859375 C-15.65547779 54.618371 -15.65547779 54.618371 -16.76171875 49.421875 C-16.84035156 48.29265625 -16.91898438 47.1634375 -17 46 C-17.11601563 45.23171875 -17.23203125 44.4634375 -17.3515625 43.671875 C-17.82270564 40.3604118 -18.07113998 38.21341995 -17 35 C-16.34 35 -15.68 35 -15 35 C-14.34 37.31 -13.68 39.62 -13 42 C-11.515 41.505 -11.515 41.505 -10 41 C-9.34 41.33 -8.68 41.66 -8 42 C-8.495 40.515 -8.495 40.515 -9 39 C-8.34 39 -7.68 39 -7 39 C-9.57528525 35.1916687 -9.57528525 35.1916687 -13.5625 33.1875 C-16.09107709 32.96165175 -16.09107709 32.96165175 -19 33 C-16.75975453 27.63771032 -14.47707826 22.67607076 -11 18 C-10.67 18 -10.34 18 -10 18 C-10 19.98 -10 21.96 -10 24 C-9.85304688 23.07380859 -9.85304688 23.07380859 -9.703125 22.12890625 C-8.21709357 13.71233171 -5.81940629 6.4429141 0 0 Z " fill="#F7F7F7" transform="translate(58,20)"/>
<path d="M0 0 C0.66 1.32 1.32 2.64 2 4 C2.66 3.01 3.32 2.02 4 1 C3.99097656 1.556875 3.98195312 2.11375 3.97265625 2.6875 C4.21551284 8.9384175 6.02609671 11.72174131 10.34375 16.13671875 C12.4756824 18.5351427 13.30113371 20.89392761 14 24 C14.66 22.68 15.32 21.36 16 20 C17.6210886 23.2421772 16.90555177 26.7082525 16.7421875 30.2734375 C17.03932607 33.41590295 17.91105779 34.69232038 20 37 C20.66 35.35 21.32 33.7 22 32 C22.625 33.8125 22.625 33.8125 23 36 C22.34 36.99 21.68 37.98 21 39 C20.34 39 19.68 39 19 39 C19.33 39.763125 19.66 40.52625 20 41.3125 C21 44 21 44 21 47 C3.51 47 -13.98 47 -32 47 C-31.505 44.03 -31.505 44.03 -31 41 C-30.01 41.66 -29.02 42.32 -28 43 C-27.67 42.01 -27.34 41.02 -27 40 C-27.66 39.67 -28.32 39.34 -29 39 C-28.01 39 -27.02 39 -26 39 C-26 39.66 -26 40.32 -26 41 C-23.89337849 40.77160737 -21.78964049 40.51650087 -19.6875 40.25 C-18.51574219 40.11078125 -17.34398437 39.9715625 -16.13671875 39.828125 C-12.98429651 39.26397166 -12.98429651 39.26397166 -11.16015625 37.2578125 C-9.85127554 34.71056318 -9.30046896 32.43239169 -8.75 29.625 C-7.48548204 24.59383281 -5.81924057 22.13477465 -1.71875 19.0234375 C0 18 0 18 3 17 C4.34090759 16.34870203 5.67592331 15.68486725 7 15 C6.195625 14.236875 5.39125 13.47375 4.5625 12.6875 C2 10 2 10 1 7 C0.01 7.33 -0.98 7.66 -2 8 C-1.34 5.36 -0.68 2.72 0 0 Z " fill="#4E4E4E" transform="translate(81,81)"/>
<path d="M0 0 C1.2065625 0.0309375 1.2065625 0.0309375 2.4375 0.0625 C2.4375 0.7225 2.4375 1.3825 2.4375 2.0625 C0.7875 2.3925 -0.8625 2.7225 -2.5625 3.0625 C-2.2325 3.7225 -1.9025 4.3825 -1.5625 5.0625 C-1.37788285 7.16361904 -1.23979235 9.26891182 -1.125 11.375 C-0.67754997 18.35377708 0.25876806 25.17321236 1.4375 32.0625 C1.72961698 23.20161833 0.88546872 14.80202546 -0.5625 6.0625 C0.4275 6.0625 1.4175 6.0625 2.4375 6.0625 C2.4375 6.7225 2.4375 7.3825 2.4375 8.0625 C3.035625 8.145 3.63375 8.2275 4.25 8.3125 C7.16774575 9.31286997 7.97700675 10.36058749 9.4375 13.0625 C9.625 16.3125 9.625 16.3125 9.4375 19.0625 C8.7775 18.0725 8.1175 17.0825 7.4375 16.0625 C10.2379474 25.48839611 13.91646212 33.66024078 20.4375 41.0625 C22.43567265 44.28871627 22.73460491 46.85320325 22.75 50.625 C22.76675781 51.57503906 22.78351563 52.52507812 22.80078125 53.50390625 C22.4375 56.0625 22.4375 56.0625 21.10546875 57.90234375 C19.4375 59.0625 19.4375 59.0625 16.4375 59.0625 C15.7775 58.7325 15.1175 58.4025 14.4375 58.0625 C14.4375 54.7625 14.4375 51.4625 14.4375 48.0625 C13.7775 50.0425 13.1175 52.0225 12.4375 54.0625 C11.7775 54.0625 11.1175 54.0625 10.4375 54.0625 C9.7775 56.0425 9.1175 58.0225 8.4375 60.0625 C5.78243073 57.65634348 4.51585303 55.88290233 4.171875 52.28125 C4.18604556 49.53216145 4.26453313 46.80594679 4.4375 44.0625 C3.7775 45.0525 3.1175 46.0425 2.4375 47.0625 C1.90125 45.886875 1.365 44.71125 0.8125 43.5 C-1.06415974 39.71316875 -3.314937 36.77751543 -6.1953125 33.703125 C-8.52550605 30.90689274 -10.148354 27.68627753 -10.5625 24.0625 C-9.973938 21.708252 -9.31657101 19.36907014 -8.5625 17.0625 C-6.87127707 20.09820977 -6.10019968 22.83541864 -5.5 26.25 C-5.14065332 29.45382953 -5.14065332 29.45382953 -3.5625 32.0625 C-3.5625 26.4525 -3.5625 20.8425 -3.5625 15.0625 C-4.5525 14.7325 -5.5425 14.4025 -6.5625 14.0625 C-5.14517717 0.12549213 -5.14517717 0.12549213 0 0 Z " fill="#B2B2B2" transform="translate(92.5625,58.9375)"/>
<path d="M0 0 C0.33 0.66 0.66 1.32 1 2 C0.07291364 4.5985161 -1.06035207 7.07229953 -2.1875 9.58984375 C-3.3024158 12.09727973 -3.3024158 12.09727973 -2 15 C-1.01 12.36 -0.02 9.72 1 7 C1.96291417 10.8516567 1.92891881 11.51655446 1 15 C1.33 15.66 1.66 16.32 2 17 C1.91255632 18.87862875 1.75824458 20.75455181 1.5625 22.625 C1.46066406 23.62789062 1.35882813 24.63078125 1.25390625 25.6640625 C1.17011719 26.43492188 1.08632813 27.20578125 1 28 C0.67 28 0.34 28 0 28 C-0.04487549 28.57443848 -0.08975098 29.14887695 -0.13598633 29.74072266 C-0.34869374 32.37002994 -0.58043211 34.99733361 -0.8125 37.625 C-0.88275391 38.52863281 -0.95300781 39.43226562 -1.02539062 40.36328125 C-1.49806952 45.54384198 -2.24520751 49.45647923 -5 54 C-4.0409375 52.3603125 -4.0409375 52.3603125 -3.0625 50.6875 C-0.48668849 45.61779324 -0.2062446 40.60985308 0 35 C0.99 35 1.98 35 3 35 C3.33 35.99 3.66 36.98 4 38 C4.99 37.505 4.99 37.505 6 37 C5.67 39.31 5.34 41.62 5 44 C5.99 43.505 5.99 43.505 7 43 C7 50.29601864 2.99302528 54.92528923 -2 60 C-2.66 60 -3.32 60 -4 60 C-4.29003906 60.92232422 -4.29003906 60.92232422 -4.5859375 61.86328125 C-4.84632812 62.67152344 -5.10671875 63.47976562 -5.375 64.3125 C-5.75785156 65.51326172 -5.75785156 65.51326172 -6.1484375 66.73828125 C-7 69 -7 69 -9 72 C-9.94693195 68.2983569 -10.30443767 66.60887535 -8.5625 63.125 C-8.046875 62.42375 -7.53125 61.7225 -7 61 C-9.96175123 61.61277612 -11.38058783 62.25372522 -14 64 C-12.68 64.33 -11.36 64.66 -10 65 C-10.45375 66.11375 -10.9075 67.2275 -11.375 68.375 C-13.1782873 73.143883 -14.12719707 77.98908437 -15 83 C-17.9765625 80.3359375 -17.9765625 80.3359375 -18.1875 77.3125 C-18.125625 76.549375 -18.06375 75.78625 -18 75 C-17.01 74.505 -17.01 74.505 -16 74 C-16.474375 73.608125 -16.94875 73.21625 -17.4375 72.8125 C-19.35179633 70.59191626 -19.61266988 68.86624291 -20 66 C-21.485 66.99 -21.485 66.99 -23 68 C-23 68.66 -23 69.32 -23 70 C-22.01 69.01 -22.01 69.01 -21 68 C-20.3125 69.8125 -20.3125 69.8125 -20 72 C-21.4375 73.75 -21.4375 73.75 -23 75 C-24.5625 73.375 -24.5625 73.375 -26 71 C-25.92844731 67.56547107 -25.55373765 65.68152326 -23.375 63 C-22.01733166 61.85670035 -20.64869274 60.7255412 -19.25 59.6328125 C-15.05669541 56.26069672 -13.60598637 54.21945572 -12 49 C-10.26490075 46.45352341 -8.4397011 44.00285548 -6.55859375 41.5625 C-4.79877139 38.66915798 -4.3547007 36.34293266 -4 33 C-5.32 33 -6.64 33 -8 33 C-10.38209879 25.85370362 -8.90152543 19.51736189 -6.1875 12.8125 C-5.92646484 12.12736328 -5.66542969 11.44222656 -5.39648438 10.73632812 C-3.90911085 6.92057235 -2.23291745 3.45331077 0 0 Z " fill="#BEBEBE" transform="translate(34,31)"/>
<path d="M0 0 C0.33 0.66 0.66 1.32 1 2 C0.34 2.66 -0.32 3.32 -1 4 C0.134375 4.28875 1.26875 4.5775 2.4375 4.875 C3.613125 5.24625 4.78875 5.6175 6 6 C6.495 6.99 6.495 6.99 7 8 C4.69 7.67 2.38 7.34 0 7 C1.32 8.32 2.64 9.64 4 11 C3.67 11.66 3.34 12.32 3 13 C2.21625 12.175 1.4325 11.35 0.625 10.5 C-1.63721264 7.77011494 -1.63721264 7.77011494 -4 8 C-4.09928082 15.75493514 -4.06059488 23.31068715 -3 31 C-2.05125 30.95875 -1.1025 30.9175 -0.125 30.875 C3 31 3 31 5 33 C1.535 32.505 1.535 32.505 -2 32 C-0.21168225 35.05763218 -0.21168225 35.05763218 2 38 C2.99 38 3.98 38 5 38 C7.1875 39.875 7.1875 39.875 9 42 C9 42.66 9 43.32 9 44 C9.66 44 10.32 44 11 44 C10.67 45.32 10.34 46.64 10 48 C9.67 47.01 9.34 46.02 9 45 C8.01 45.495 8.01 45.495 7 46 C6.7525 46.99 6.7525 46.99 6.5 48 C6.2525 48.99 6.2525 48.99 6 50 C5.01 50.495 5.01 50.495 4 51 C3.67 50.01 3.34 49.02 3 48 C1.68 48 0.36 48 -1 48 C-1.495 45.525 -1.495 45.525 -2 43 C-2.88751953 43.08701172 -2.88751953 43.08701172 -3.79296875 43.17578125 C-8.32303052 43.43443078 -10.32186981 43.51205749 -14.0625 40.6875 C-16 38 -16 38 -16 35 C-15.01 35 -14.02 35 -13 35 C-11.375 37.5 -11.375 37.5 -10 40 C-9.67 40 -9.34 40 -9 40 C-9.33 39.01 -9.66 38.02 -10 37 C-10.25782805 33.25446163 -10.23139543 29.50347232 -10.25 25.75 C-10.270625 24.72519531 -10.29125 23.70039062 -10.3125 22.64453125 C-10.3434977 16.62322872 -9.86008581 12.32879146 -7 7 C-9.56229028 9.27677793 -10.80703414 11.41287292 -12.125 14.5625 C-12.45757812 15.34753906 -12.79015625 16.13257812 -13.1328125 16.94140625 C-13.41898438 17.62074219 -13.70515625 18.30007812 -14 19 C-14.33 19.66 -14.66 20.32 -15 21 C-15.22950319 23.204364 -15.41075933 25.41392173 -15.5625 27.625 C-15.64628906 28.81351563 -15.73007812 30.00203125 -15.81640625 31.2265625 C-15.87699219 32.14179687 -15.93757813 33.05703125 -16 34 C-16.33 34 -16.66 34 -17 34 C-17.33 30.7 -17.66 27.4 -18 24 C-21.91653966 30.80127913 -21.91653966 30.80127913 -25 38 C-24.29875 37.731875 -23.5975 37.46375 -22.875 37.1875 C-19.53988725 36.96999265 -19.13449613 37.36830612 -16.6875 39.4375 C-15.800625 40.283125 -14.91375 41.12875 -14 42 C-14.495 44.475 -14.495 44.475 -15 47 C-16.32 46.67 -17.64 46.34 -19 46 C-19.33 46.66 -19.66 47.32 -20 48 C-22 46 -22 46 -22.125 42.875 C-22.08375 41.92625 -22.0425 40.9775 -22 40 C-23.32 40.99 -24.64 41.98 -26 43 C-27.58531685 41.41468315 -27.28479578 39.82459526 -27.375 37.625 C-27.35680651 31.33005138 -24.9112071 26.46891049 -22 21 C-21.67 21.66 -21.34 22.32 -21 23 C-17.07117781 20.83237396 -16.31028755 18.30239914 -14.89453125 14.19140625 C-12.5679305 8.49174241 -9.13992824 4.27210552 -3.625 1.5 C-2.42875 1.005 -1.2325 0.51 0 0 Z " fill="#BCBCBC" transform="translate(65,15)"/>
<path d="M0 0 C3.25545347 2.76005837 5.20084426 5.18287227 7 9 C6.443125 8.61328125 5.88625 8.2265625 5.3125 7.828125 C2.89815711 6.18049911 0.45782996 4.58196277 -2 3 C-2.96873047 2.36191406 -2.96873047 2.36191406 -3.95703125 1.7109375 C-10.54594769 -2.14531254 -17.67863147 -1.98725782 -24.9921875 -0.31640625 C-27.36174131 0.38506223 -29.68412488 1.13923226 -32 2 C-31.34 2.66 -30.68 3.32 -30 4 C-29.47365914 8.73706776 -30.39996053 11.0999408 -33 15 C-33.309375 15.886875 -33.61875 16.77375 -33.9375 17.6875 C-35.23925445 20.52073027 -36.23777816 20.74444462 -39 22 C-44.22976734 27.83320203 -44.2615216 33.51757648 -44 41 C-43.34 41.33 -42.68 41.66 -42 42 C-41.875 48.75 -41.875 48.75 -43 51 C-43.66 51 -44.32 51 -45 51 C-45 50.01 -45 49.02 -45 48 C-45.66 48 -46.32 48 -47 48 C-48.75082882 44.49834237 -48.03314834 40.27343602 -47.9609375 36.41015625 C-47.83579913 32.57996587 -47.83579913 32.57996587 -49 29 C-49 28.34 -49 27.68 -49 27 C-49.66 28.98 -50.32 30.96 -51 33 C-51.33 33 -51.66 33 -52 33 C-54.42421659 24.98143742 -50.48090727 18.01654043 -46.9375 10.8515625 C-42.84538162 4.20187013 -35.39084889 0.32185635 -28.3125 -2.4375 C-19.26335416 -4.12367624 -8.18268043 -4.47731571 0 0 Z " fill="#DFDFDF" transform="translate(83,16)"/>
<path d="M0 0 C0.33 0 0.66 0 1 0 C1.71263411 12.35232461 -2.42883027 25.20201565 -10 35 C-11.02223411 35.87732979 -12.0648607 36.73137137 -13.125 37.5625 C-18.27054187 41.92502463 -18.30864495 46.57623782 -18.8515625 52.98828125 C-18.90054688 53.65214844 -18.94953125 54.31601563 -19 55 C-19.66 55 -20.32 55 -21 55 C-21.33 54.34 -21.66 53.68 -22 53 C-26.68738665 53.90723613 -31.34193744 54.9547267 -36 56 C-34 54 -34 54 -30.1875 53.1875 C-26.89652301 52.04670761 -26.11755971 51.21840893 -24.43359375 48.08984375 C-23.17344977 44.75328343 -22.06317125 41.40379632 -21 38 C-20.34200559 36.32989055 -19.67699642 34.66249754 -19 33 C-18.690625 32.01 -18.38125 31.02 -18.0625 30 C-17 27 -17 27 -15.5 24.5625 C-12.68983459 19.76180075 -11.79770651 14.4509945 -11 9 C-8 8 -5 7 -2 6 C-0.77479736 2.99152582 -0.77479736 2.99152582 0 0 Z " fill="#B2B2B2" transform="translate(84,61)"/>
<path d="M0 0 C1.32 0 2.64 0 4 0 C8 4.22222222 8 4.22222222 8 7 C8.99 7.33 9.98 7.66 11 8 C8.89785841 9.71285611 7.10552321 10.95941415 4.5625 11.9375 C1.43507912 13.23423549 -0.53555763 14.66403566 -3 17 C-4.34033492 20.13161501 -4.34033492 20.13161501 -5.125 23.5625 C-6.97211538 30.76298077 -6.97211538 30.76298077 -10 33 C-13.01490557 34.00496852 -15.04181692 34.10335303 -18.1875 34.0625 C-19.08855469 34.05347656 -19.98960938 34.04445312 -20.91796875 34.03515625 C-21.60503906 34.02355469 -22.29210938 34.01195312 -23 34 C-23 33.34 -23 32.68 -23 32 C-23.99 31.67 -24.98 31.34 -26 31 C-25.37351563 30.73445313 -24.74703125 30.46890625 -24.1015625 30.1953125 C-23.28429688 29.84210938 -22.46703125 29.48890625 -21.625 29.125 C-20.81289063 28.77695313 -20.00078125 28.42890625 -19.1640625 28.0703125 C-16.86197701 27.07553933 -16.86197701 27.07553933 -15 25 C-15 25.99 -15 26.98 -15 28 C-14.34 28 -13.68 28 -13 28 C-13.05220703 27.02160156 -13.05220703 27.02160156 -13.10546875 26.0234375 C-13.31754571 19.17638122 -12.55578033 14.94301977 -7.9375 9.625 C-6 8 -6 8 -4 8 C-3.566875 7.13375 -3.566875 7.13375 -3.125 6.25 C-1.5625 3.125 -1.5625 3.125 0 0 Z " fill="#585858" transform="translate(78,88)"/>
<path d="M0 0 C0.66 0 1.32 0 2 0 C4.45967003 5.81376552 5.61319345 11.19190439 6.375 17.4609375 C6.78101751 20.34176395 6.78101751 20.34176395 10 22 C10.6875 25.625 10.6875 25.625 11 29 C12.32 29 13.64 29 15 29 C14.938125 28.21625 14.87625 27.4325 14.8125 26.625 C14.874375 25.75875 14.93625 24.8925 15 24 C15.99 23.34 16.98 22.68 18 22 C20.16410238 29.30384552 21.13362486 36.55791648 19 44 C20.32 44.33 21.64 44.66 23 45 C23 50.94 23 56.88 23 63 C20 61 20 61 19.3046875 58.65234375 C19.16289063 57.75644531 19.02109375 56.86054687 18.875 55.9375 C18.56845653 52.66815385 18.56845653 52.66815385 17 50 C16.34 51.32 15.68 52.64 15 54 C15.58660246 47.32271667 16.23581011 40.65936905 17 34 C16.835 34.763125 16.67 35.52625 16.5 36.3125 C14.51592771 39.86729619 12.55644043 40.2103078 8.77734375 41.32421875 C6.7933802 41.84899265 6.7933802 41.84899265 6 44 C4.68 43.67 3.36 43.34 2 43 C2 41 2 41 3.875 39.0625 C4.926875 38.0415625 4.926875 38.0415625 6 37 C8.35119399 33.47320901 8.21443452 31.97120515 8.125 27.8125 C8.10695313 26.72582031 8.08890625 25.63914062 8.0703125 24.51953125 C8.04710938 23.68808594 8.02390625 22.85664062 8 22 C7.34 22 6.68 22 6 22 C5.67 23.32 5.34 24.64 5 26 C3.35 17.42 1.7 8.84 0 0 Z " fill="#BCBCBC" transform="translate(67,29)"/>
<path d="M0 0 C0 6.60273777 -3.04706887 10.19860336 -7.08984375 15.25390625 C-9.09088755 18.13066247 -9.93783512 20.68408189 -11 24 C-12.40234375 26.1171875 -12.40234375 26.1171875 -13.9375 27.875 C-14.44152344 28.47054687 -14.94554687 29.06609375 -15.46484375 29.6796875 C-17 31 -17 31 -20 31 C-21.75547734 33.6848477 -22.00627277 34.92002215 -21.75 38.1875 C-21.37875 39.5796875 -21.37875 39.5796875 -21 41 C-20.34 41.33 -19.68 41.66 -19 42 C-18.67 40.68 -18.34 39.36 -18 38 C-19.485 38.495 -19.485 38.495 -21 39 C-20.75 37.125 -20.75 37.125 -20 35 C-17.9375 33.75 -17.9375 33.75 -16 33 C-15.67 35.64 -15.34 38.28 -15 41 C-14.01 41.33 -13.02 41.66 -12 42 C-13.485 42.495 -13.485 42.495 -15 43 C-14.34 45.31 -13.68 47.62 -13 50 C-10.87785153 47.87785153 -11.05933843 43.73033982 -10.59765625 40.859375 C-10.01166516 38.05580977 -9.1426727 35.62001942 -8 33 C-9.65 33 -11.3 33 -13 33 C-9.71195019 30.08772731 -7.40114397 28.50298788 -3 28 C-3.4640625 28.804375 -3.4640625 28.804375 -3.9375 29.625 C-5.17827439 32.3984957 -5.5909675 35.00042837 -6 38 C-5.01 37.505 -5.01 37.505 -4 37 C-4.01160156 37.77085938 -4.02320312 38.54171875 -4.03515625 39.3359375 C-4.04417969 40.33882812 -4.05320312 41.34171875 -4.0625 42.375 C-4.07410156 43.37273437 -4.08570312 44.37046875 -4.09765625 45.3984375 C-4.18006602 47.98432453 -4.18006602 47.98432453 -3 50 C-5 49 -7 48 -9 47 C-9.08636719 47.69867188 -9.17273437 48.39734375 -9.26171875 49.1171875 C-9.68204824 51.83968863 -10.13743453 54.38196209 -11 57 C-13.625 58.625 -13.625 58.625 -16 59 C-15.34 58.01 -14.68 57.02 -14 56 C-14.32126128 53.36565746 -14.81355048 51.37289903 -16 49 C-16.66 49.99 -17.32 50.98 -18 52 C-19.9451 49.08235 -20.45276317 47.37462715 -21 44 C-21.99 43.67 -22.98 43.34 -24 43 C-24.50357561 36.70530487 -24.25420831 32.99869477 -20 28 C-18.63087304 26.66063667 -17.25542404 25.32771694 -15.875 24 C-12.55767251 20.79263917 -11.28897233 18.4618273 -10 14 C-7.5 11.3125 -7.5 11.3125 -5 9 C-4.34 8.01 -3.68 7.02 -3 6 C-3.99 5.34 -4.98 4.68 -6 4 C-5.67 3.01 -5.34 2.02 -5 1 C-3.28960011 0.41205004 -1.81522119 0 0 0 Z " fill="#7A7A7A" transform="translate(31,63)"/>
<path d="M0 0 C0.33 0.66 0.66 1.32 1 2 C0.07291364 4.5985161 -1.06035207 7.07229953 -2.1875 9.58984375 C-3.3024158 12.09727973 -3.3024158 12.09727973 -2 15 C-1.01 12.36 -0.02 9.72 1 7 C1.96291417 10.8516567 1.92891881 11.51655446 1 15 C1.33 15.66 1.66 16.32 2 17 C1.91255632 18.87862875 1.75824458 20.75455181 1.5625 22.625 C1.46066406 23.62789062 1.35882813 24.63078125 1.25390625 25.6640625 C1.17011719 26.43492188 1.08632813 27.20578125 1 28 C0.67 28 0.34 28 0 28 C-0.0501123 28.58491211 -0.10022461 29.16982422 -0.15185547 29.77246094 C-0.38451235 32.43245181 -0.62962436 35.09115349 -0.875 37.75 C-0.95363281 38.67039063 -1.03226563 39.59078125 -1.11328125 40.5390625 C-1.19707031 41.42851563 -1.28085937 42.31796875 -1.3671875 43.234375 C-1.44050293 44.05131836 -1.51381836 44.86826172 -1.58935547 45.70996094 C-2.03253227 48.18142253 -2.6327378 49.89394255 -4 52 C-7.125 53.25 -7.125 53.25 -10 54 C-9.67 53.360625 -9.34 52.72125 -9 52.0625 C-7.92728775 50.23205433 -7.92728775 50.23205433 -8 49 C-9.65 49.99 -11.3 50.98 -13 52 C-10.94123096 47.59132287 -8.17175107 43.68374445 -5.4609375 39.65625 C-3.67872083 36.92110634 -3.67872083 36.92110634 -4 33 C-5.32 33 -6.64 33 -8 33 C-10.38209879 25.85370362 -8.90152543 19.51736189 -6.1875 12.8125 C-5.79594727 11.78479492 -5.79594727 11.78479492 -5.39648438 10.73632812 C-3.90911085 6.92057235 -2.23291745 3.45331077 0 0 Z " fill="#B7B7B7" transform="translate(34,31)"/>
<path d="M0 0 C2.77510029 1.38755014 3.06341432 3.06760872 4.3125 5.875 C6.25712216 9.92629617 7.66195585 12.26478234 12 14 C11.67 15.32 11.34 16.64 11 18 C9.02 17.67 7.04 17.34 5 17 C3.60229416 19.25308553 3.60229416 19.25308553 5 23 C-3.25 23 -11.5 23 -20 23 C-19.34 21.68 -18.68 20.36 -18 19 C-16 19 -16 19 -14.375 20.5 C-13.92125 20.995 -13.4675 21.49 -13 22 C-12.34 20.68 -11.68 19.36 -11 18 C-10.34 18 -9.68 18 -9 18 C-8.73445313 17.36191406 -8.46890625 16.72382812 -8.1953125 16.06640625 C-7.84210937 15.24011719 -7.48890625 14.41382812 -7.125 13.5625 C-6.77695312 12.73878906 -6.42890625 11.91507813 -6.0703125 11.06640625 C-5 9 -5 9 -3 8 C-1.02 10.31 0.96 12.62 3 15 C2.55527344 14.48050781 2.11054687 13.96101563 1.65234375 13.42578125 C-3 7.69248292 -3 7.69248292 -3 4.125 C-2 2 -2 2 0 0 Z " fill="#4E4E4E" transform="translate(38,105)"/>
<path d="M0 0 C0.99 0 1.98 0 3 0 C3 0.66 3 1.32 3 2 C3.598125 2.0825 4.19625 2.165 4.8125 2.25 C7.73024575 3.25036997 8.53950675 4.29808749 10 7 C10.1875 10.25 10.1875 10.25 10 13 C9.34 12.01 8.68 11.02 8 10 C10.8004474 19.42589611 14.47896212 27.59774078 21 35 C22.99817265 38.22621627 23.29710491 40.79070325 23.3125 44.5625 C23.32925781 45.51253906 23.34601563 46.46257812 23.36328125 47.44140625 C23 50 23 50 21.66796875 51.83984375 C20 53 20 53 17 53 C16.34 52.67 15.68 52.34 15 52 C15.66 51.01 16.32 50.02 17 49 C17.66 49 18.32 49 19 49 C19.33 48.34 19.66 47.68 20 47 C20.66 47 21.32 47 22 47 C20.09814274 39.70954717 17.80604509 34.44727024 13 28.54296875 C8.16514941 22.36990058 5.72441763 17.94021695 6 10 C5.34 10 4.68 10 4 10 C4.2165625 11.01320313 4.433125 12.02640625 4.65625 13.0703125 C4.93781199 14.42181004 5.2190445 15.77337625 5.5 17.125 C5.64308594 17.79015625 5.78617187 18.4553125 5.93359375 19.140625 C6.7612283 23.16056422 7.15330658 26.89904899 7 31 C6.34 31 5.68 31 5 31 C2.8955987 24.62274911 2.14899325 18.21647262 1.375 11.5625 C1.2409375 10.44939453 1.106875 9.33628906 0.96875 8.18945312 C0.64077082 5.46019777 0.31800347 2.73043258 0 0 Z " fill="#767676" transform="translate(92,65)"/>
<path d="M0 0 C0.66 1.32 1.32 2.64 2 4 C2.66 3.01 3.32 2.02 4 1 C4.00257812 1.56847656 4.00515625 2.13695313 4.0078125 2.72265625 C4.29924751 8.54164196 5.59103525 11.47766567 9.72265625 15.58984375 C11 17 11 17 11 19 C9.35 19.33 7.7 19.66 6 20 C5.22757731 21.83700789 5.22757731 21.83700789 5 24 C5.97850195 25.02104551 6.97980427 26.0206121 8 27 C8 28.32 8 29.64 8 31 C7.01 31 6.02 31 5 31 C5.33 31.99 5.66 32.98 6 34 C6.03874921 35.66621616 6.0450286 37.33394172 6 39 C5.34 39 4.68 39 4 39 C2 36 2 36 2 33 C0.68 32.67 -0.64 32.34 -2 32 C-1.79375 31.443125 -1.5875 30.88625 -1.375 30.3125 C-0.89304789 27.340462 -1.73434972 25.68020059 -3 23 C-4.32 23.99 -5.64 24.98 -7 26 C-5.50521886 22.19510255 -3.30557786 20.33809165 0 18 C0.99 17.67 1.98 17.34 3 17 C4.34090759 16.34870203 5.67592331 15.68486725 7 15 C6.195625 14.236875 5.39125 13.47375 4.5625 12.6875 C2 10 2 10 1 7 C0.01 7.33 -0.98 7.66 -2 8 C-1.34 5.36 -0.68 2.72 0 0 Z " fill="#424242" transform="translate(81,81)"/>
<path d="M0 0 C1.0738133 3.2214399 0.97341251 5.25888431 0.8125 8.625 C0.74859831 14.4684548 1.79106476 19.06948272 5 24 C5.66 24.33 6.32 24.66 7 25 C7.12117188 23.89140625 7.24234375 22.7828125 7.3671875 21.640625 C7.53606296 20.17703766 7.70535572 18.71349843 7.875 17.25 C7.95363281 16.52039063 8.03226563 15.79078125 8.11328125 15.0390625 C8.55136176 11.33222743 8.9986215 8.19547828 11 5 C10.9278125 6.12019531 10.855625 7.24039063 10.78125 8.39453125 C10.68745044 9.86718434 10.59370317 11.33984077 10.5 12.8125 C10.42845703 13.91948242 10.42845703 13.91948242 10.35546875 15.04882812 C10.16609387 18.03824588 10 21.00374574 10 24 C9.34 24.99 8.68 25.98 8 27 C11.96 25.68 15.92 24.36 20 23 C20.66 23.66 21.32 24.32 22 25 C15.375 29 15.375 29 12 29 C12 29.66 12 30.32 12 31 C12.66 31 13.32 31 14 31 C14 32.65 14 34.3 14 36 C13.01 35.01 12.02 34.02 11 33 C10.01 35.475 10.01 35.475 9 38 C7.02 38 5.04 38 3 38 C2.505 36.515 2.505 36.515 2 35 C1.01 35.495 1.01 35.495 0 36 C0.8125 34.0625 0.8125 34.0625 2 32 C5 31 5 31 7.1875 31.9375 C8.0846875 32.4634375 8.0846875 32.4634375 9 33 C9.33 31.68 9.66 30.36 10 29 C9.13375 28.9071875 9.13375 28.9071875 8.25 28.8125 C3.67652733 27.1609682 1.78817294 22.84278919 -0.25 18.6875 C-3.01921026 12.12425364 -2.66617248 6.6654312 0 0 Z " fill="#353535" transform="translate(40,90)"/>
<path d="M0 0 C0.45375 0.474375 0.9075 0.94875 1.375 1.4375 C2.93258204 3.09027808 2.93258204 3.09027808 5 4 C5.66 3.01 6.32 2.02 7 1 C7.61875 2.5778125 7.61875 2.5778125 8.25 4.1875 C9.69411378 7.58704057 11.55191058 10.21424307 14 13 C13.01 13.495 13.01 13.495 12 14 C10.02 11.69 8.04 9.38 6 7 C4.35 10.63 2.7 14.26 1 18 C0.01 18 -0.98 18 -2 18 C-2.33 18.66 -2.66 19.32 -3 20 C-5.475 19.01 -5.475 19.01 -8 18 C-8.21755666 12.5610835 -8.10428384 8.12919186 -6 3 C-4.68 3.33 -3.36 3.66 -2 4 C-2 3.34 -2 2.68 -2 2 C-1.34 2 -0.68 2 0 2 C0 1.34 0 0.68 0 0 Z " fill="#494949" transform="translate(28,107)"/>
<path d="M0 0 C0 3 0 3 -1.4375 6.375 C-3.6857049 12.03793121 -3.73363103 17.97455026 -4 24 C-4.33 24 -4.66 24 -5 24 C-5.33 20.7 -5.66 17.4 -6 14 C-9.91653966 20.80127913 -9.91653966 20.80127913 -13 28 C-12.29875 27.731875 -11.5975 27.46375 -10.875 27.1875 C-7.53988725 26.96999265 -7.13449613 27.36830612 -4.6875 29.4375 C-3.800625 30.283125 -2.91375 31.12875 -2 32 C-2.495 34.475 -2.495 34.475 -3 37 C-4.32 36.67 -5.64 36.34 -7 36 C-7.33 36.66 -7.66 37.32 -8 38 C-10 36 -10 36 -10.125 32.875 C-10.08375 31.92625 -10.0425 30.9775 -10 30 C-11.32 30.99 -12.64 31.98 -14 33 C-15.58531685 31.41468315 -15.28479578 29.82459526 -15.375 27.625 C-15.35680651 21.33005138 -12.9112071 16.46891049 -10 11 C-9.67 11.66 -9.34 12.32 -9 13 C-4.93971306 10.75984169 -4.04279631 8.04695068 -2.7109375 3.83984375 C-2 2 -2 2 0 0 Z " fill="#C7C7C7" transform="translate(53,25)"/>
<path d="M0 0 C0.99 0.33 1.98 0.66 3 1 C2.360625 1.5775 1.72125 2.155 1.0625 2.75 C-3.35641412 7.57063358 -2.18367146 14.25440875 -2.1875 20.4375 C-2.19974609 21.47455078 -2.21199219 22.51160156 -2.22460938 23.58007812 C-2.22654297 24.58361328 -2.22847656 25.58714844 -2.23046875 26.62109375 C-2.23457764 27.5330249 -2.23868652 28.44495605 -2.24291992 29.38452148 C-1.97773789 32.23969245 -1.18352444 34.40164055 0 37 C-2.46800047 35.84826645 -4.04783565 34.95216435 -6 33 C-6 32.01 -6 31.02 -6 30 C-7.32 30.33 -8.64 30.66 -10 31 C-9.69815681 19.54505081 -8.55244285 8.55244285 0 0 Z " fill="#E4E4E4" transform="translate(58,20)"/>
<path d="M0 0 C0.33 0 0.66 0 1 0 C3.16410238 7.30384552 4.13362486 14.55791648 2 22 C3.32 22.33 4.64 22.66 6 23 C6 28.94 6 34.88 6 41 C3 39 3 39 2.3046875 36.65234375 C2.09199219 35.30849609 2.09199219 35.30849609 1.875 33.9375 C1.56845653 30.66815385 1.56845653 30.66815385 0 28 C-0.66 29.32 -1.32 30.64 -2 32 C-1.85866501 30.22880197 -1.71176792 28.45804713 -1.5625 26.6875 C-1.48128906 25.70136719 -1.40007812 24.71523437 -1.31640625 23.69921875 C-1 21 -1 21 0 18 C0.33345726 15.28860984 0.43357964 12.70283412 0 10 C-1.84188612 7.94729537 -1.84188612 7.94729537 -4 7 C-3.34 7 -2.68 7 -2 7 C-2.04125 6.21625 -2.0825 5.4325 -2.125 4.625 C-2 2 -2 2 0 0 Z " fill="#C5C5C5" transform="translate(84,51)"/>
<path d="M0 0 C3.37462715 0.54723683 5.08235 1.0549 8 3 C9.32 2.34 10.64 1.68 12 1 C11.56880859 2.03447266 11.56880859 2.03447266 11.12890625 3.08984375 C9.95056444 6.02077401 9.95056444 6.02077401 9.02734375 9.19140625 C6.1469147 18.10112049 6.1469147 18.10112049 2.7421875 20.76953125 C0.46498835 21.80562025 -1.53041055 22.60214865 -4 23 C-4.66 22.67 -5.32 22.34 -6 22 C-5.34 21.34 -4.68 20.68 -4 20 C-3.7525 19.278125 -3.505 18.55625 -3.25 17.8125 C-1.5461042 13.97873444 0.94730484 10.87849245 4 8 C4.66 8 5.32 8 6 8 C4.26440562 4.942048 2.61527381 2.36620011 0 0 Z " fill="#4F4F4F" transform="translate(54,93)"/>
<path d="M0 0 C2.77510029 1.38755014 3.06341432 3.06760872 4.3125 5.875 C6.25712216 9.92629617 7.66195585 12.26478234 12 14 C11.67 15.32 11.34 16.64 11 18 C9.02 17.67 7.04 17.34 5 17 C3.75453595 19.49092811 4.2232422 20.41080733 5 23 C2.36 23 -0.28 23 -3 23 C-1.02 20.03 0.96 17.06 3 14 C1.989375 12.948125 0.97875 11.89625 -0.0625 10.8125 C-3 7.39808824 -3 7.39808824 -3 4.1875 C-2 2 -2 2 0 0 Z " fill="#717171" transform="translate(38,105)"/>
<path d="M0 0 C1.32 0 2.64 0 4 0 C3.690625 0.53625 3.38125 1.0725 3.0625 1.625 C1.82172561 4.3984957 1.4090325 7.00042837 1 10 C1.66 9.67 2.32 9.34 3 9 C2.98839844 9.77085938 2.97679687 10.54171875 2.96484375 11.3359375 C2.95582031 12.33882812 2.94679688 13.34171875 2.9375 14.375 C2.92589844 15.37273437 2.91429687 16.37046875 2.90234375 17.3984375 C2.81993398 19.98432453 2.81993398 19.98432453 4 22 C2 21 -0 20 -2 19 C-2.08636719 19.69867188 -2.17273438 20.39734375 -2.26171875 21.1171875 C-2.68204824 23.83968863 -3.13743453 26.38196209 -4 29 C-6.625 30.625 -6.625 30.625 -9 31 C-8.01 29.515 -8.01 29.515 -7 28 C-6.97250522 25.93089407 -6.97250522 25.93089407 -7.375 23.8125 C-7.58125 22.554375 -7.7875 21.29625 -8 20 C-7.34 20.66 -6.68 21.32 -6 22 C-3.87785153 19.87785153 -4.05933843 15.73033982 -3.59765625 12.859375 C-3.01166516 10.05580977 -2.1426727 7.62001942 -1 5 C-2.65 5 -4.3 5 -6 5 C-5.195625 4.360625 -4.39125 3.72125 -3.5625 3.0625 C-1.7249496 1.59396498 -1.7249496 1.59396498 0 0 Z " fill="#7A7A7A" transform="translate(24,91)"/>
<path d="M0 0 C0.99 0.33 1.98 0.66 3 1 C3 1.33 3 1.66 3 2 C3.33 2 3.66 2 4 2 C3.73040144 7.82332891 2.77098033 12.20392725 -0.16015625 17.2734375 C-1.21871063 19.12963029 -1.21871063 19.12963029 -1 22 C-1.66 22.66 -2.32 23.32 -3 24 C-3.495 24.53625 -3.99 25.0725 -4.5 25.625 C-6 27 -6 27 -8 27 C-6.85086347 22.23929152 -5.56329818 17.64391517 -4 13 C-3.28543678 10.71026822 -2.57711606 8.41857914 -1.875 6.125 C-1.34519531 4.39636719 -1.34519531 4.39636719 -0.8046875 2.6328125 C-0.53914063 1.76398438 -0.27359375 0.89515625 0 0 Z " fill="#BCBCBC" transform="translate(75,71)"/>
<path d="M0 0 C0.33 0.66 0.66 1.32 1 2 C0.41223974 3.4826917 -0.24663896 4.93745076 -0.9375 6.375 C-3.12052065 11.5185555 -3.31310537 15.80178727 -3.04296875 21.3359375 C-3.00326856 23.79734904 -3.27482546 25.66394155 -4 28 C-3.34 28 -2.68 28 -2 28 C-2 28.66 -2 29.32 -2 30 C-3.65 30.66 -5.3 31.32 -7 32 C-9.499232 28.251152 -9.48472375 25.33735845 -9 21 C-8.28586819 18.17086227 -7.28127962 15.51462695 -6.1875 12.8125 C-5.79594727 11.78479492 -5.79594727 11.78479492 -5.39648438 10.73632812 C-3.90911085 6.92057235 -2.23291745 3.45331077 0 0 Z " fill="#878787" transform="translate(34,31)"/>
<path d="M0 0 C1 2 1 2 0.546875 4.05859375 C0.28390625 4.84363281 0.0209375 5.62867187 -0.25 6.4375 C-0.50265625 7.21996094 -0.7553125 8.00242187 -1.015625 8.80859375 C-2.06443076 11.14343515 -3.01935231 12.396852 -5 14 C-8.01490557 15.00496852 -10.04181692 15.10335303 -13.1875 15.0625 C-14.08855469 15.05347656 -14.98960938 15.04445313 -15.91796875 15.03515625 C-16.60503906 15.02355469 -17.29210938 15.01195313 -18 15 C-18 14.34 -18 13.68 -18 13 C-18.99 12.67 -19.98 12.34 -21 12 C-13.12253829 8.74398249 -13.12253829 8.74398249 -8.4375 9.8125 C-7.633125 10.204375 -6.82875 10.59625 -6 11 C-6.12375 9.9275 -6.2475 8.855 -6.375 7.75 C-6.25125 6.5125 -6.1275 5.275 -6 4 C-3 1.5625 -3 1.5625 0 0 Z " fill="#909090" transform="translate(73,107)"/>
<path d="M0 0 C0.66 0.33 1.32 0.66 2 1 C1.67 1.66 1.34 2.32 1 3 C1.66 3 2.32 3 3 3 C1.125 8.75 1.125 8.75 0 11 C-0.22622081 12.70363822 -0.40888473 14.41328701 -0.5625 16.125 C-0.64628906 17.03507812 -0.73007813 17.94515625 -0.81640625 18.8828125 C-0.87699219 19.58148438 -0.93757813 20.28015625 -1 21 C-1.66 21 -2.32 21 -3 21 C-3.33 20.34 -3.66 19.68 -4 19 C-8.68738665 19.90723613 -13.34193744 20.9547267 -18 22 C-16 20 -16 20 -12.1875 19.1875 C-8.86959736 18.0454683 -8.12079859 17.23235239 -6.46875 14.0546875 C-5.62855896 11.76465462 -4.83862418 9.45541752 -4.10546875 7.12890625 C-3.07376143 4.20877352 -1.99819709 2.33027569 0 0 Z " fill="#AAAAAA" transform="translate(66,95)"/>
<path d="M0 0 C3.25545347 2.76005837 5.20084426 5.18287227 7 9 C6.443125 8.61328125 5.88625 8.2265625 5.3125 7.828125 C2.89815711 6.18049911 0.45782996 4.58196277 -2 3 C-2.96873047 2.36191406 -2.96873047 2.36191406 -3.95703125 1.7109375 C-10.49249119 -2.11402642 -17.50082224 -1.93522234 -24.78125 -0.421875 C-29.45230177 0.90065171 -33.740331 2.64597239 -38 5 C-37.67 5.66 -37.34 6.32 -37 7 C-39.97 8.65 -42.94 10.3 -46 12 C-43.98724304 5.63356224 -39.59447082 3.20929275 -34 0 C-24.21662816 -4.69404205 -9.60943894 -5.25799489 0 0 Z " fill="#9A9A9A" transform="translate(83,16)"/>
<path d="M0 0 C0 3 0 3 -1 6 C0.98 6 2.96 6 5 6 C4.80664062 6.53367187 4.61328125 7.06734375 4.4140625 7.6171875 C2.41302552 13.34292699 1.05915756 19.03133562 0 25 C-2.9765625 22.3359375 -2.9765625 22.3359375 -3.1875 19.3125 C-3.125625 18.549375 -3.06375 17.78625 -3 17 C-2.34 16.67 -1.68 16.34 -1 16 C-1.474375 15.649375 -1.94875 15.29875 -2.4375 14.9375 C-4.67873825 12.15836457 -4.67117658 9.4855283 -5 6 C-4.34 6 -3.68 6 -3 6 C-2.690625 5.195625 -2.38125 4.39125 -2.0625 3.5625 C-1 1 -1 1 0 0 Z " fill="#A6A6A6" transform="translate(19,89)"/>
<path d="M0 0 C0.66 0 1.32 0 2 0 C2.28875 1.2375 2.5775 2.475 2.875 3.75 C4.00415518 8.2195726 5.48999226 11.28598916 8.1875 15.0625 C8.785625 16.031875 9.38375 17.00125 10 18 C9.67 18.99 9.34 19.98 9 21 C9.63270867 22.34977849 10.30062468 23.68352881 11 25 C11 25.99 11 26.98 11 28 C10.34 28 9.68 28 9 28 C9 27.34 9 26.68 9 26 C8.01 25.67 7.02 25.34 6 25 C2.601889 21.63545059 2.07006454 17.60374754 1.3125 13.0625 C1.18294922 12.35931641 1.05339844 11.65613281 0.91992188 10.93164062 C0.26806704 7.25159244 -0.15358923 3.73733796 0 0 Z " fill="#B8B8B8" transform="translate(96,75)"/>
<path d="M0 0 C0.66 0.33 1.32 0.66 2 1 C2.625 3.5625 2.625 3.5625 3 6 C3.66 6 4.32 6 5 6 C5 6.99 5 7.98 5 9 C5.66 9 6.32 9 7 9 C7 8.34 7 7.68 7 7 C7.66 7.33 8.32 7.66 9 8 C10.62162162 16.75675676 10.62162162 16.75675676 9 20 C8.34 20 7.68 20 7 20 C7 19.01 7 18.02 7 17 C6.34 17.33 5.68 17.66 5 18 C5.33 15.69 5.66 13.38 6 11 C5.01 12.485 5.01 12.485 4 14 C3.67 12.02 3.34 10.04 3 8 C2.44572114 10.07499264 1.98549538 12.09961003 1.67578125 14.2265625 C0.62304536 21.17688335 -2.08515954 26.21391504 -6 32 C-6.33 31.34 -6.66 30.68 -7 30 C-6.05004883 28.22485352 -6.05004883 28.22485352 -4.64453125 26.06640625 C-1.56989172 20.75837239 -1.03655964 15.98085787 -0.6875 9.9375 C-0.61466797 8.97650391 -0.54183594 8.01550781 -0.46679688 7.02539062 C-0.29208498 4.6842512 -0.13687846 2.34360289 0 0 Z " fill="#606060" transform="translate(33,58)"/>
<path d="M0 0 C1.2065625 0.0309375 1.2065625 0.0309375 2.4375 0.0625 C2.4375 0.7225 2.4375 1.3825 2.4375 2.0625 C0.7875 2.3925 -0.8625 2.7225 -2.5625 3.0625 C-2.2325 3.7225 -1.9025 4.3825 -1.5625 5.0625 C-1.3560257 7.35092353 -1.19602892 9.64366393 -1.0625 11.9375 C-0.83672229 15.79991159 -0.51649205 19.3253741 0.4375 23.0625 C0.50298492 24.64461573 0.52328381 26.22920081 0.5 27.8125 C0.49097656 28.61171875 0.48195313 29.4109375 0.47265625 30.234375 C0.45525391 31.13929687 0.45525391 31.13929687 0.4375 32.0625 C-0.2225 32.0625 -0.8825 32.0625 -1.5625 32.0625 C-3.08356634 29.02036733 -2.93679338 25.78202428 -3.125 22.4375 C-3.18977539 21.37789062 -3.18977539 21.37789062 -3.25585938 20.296875 C-3.36194751 18.55231463 -3.46272889 16.80743303 -3.5625 15.0625 C-4.5525 14.7325 -5.5425 14.4025 -6.5625 14.0625 C-5.14517717 0.12549213 -5.14517717 0.12549213 0 0 Z " fill="#5E5E5E" transform="translate(92.5625,58.9375)"/>
<path d="M0 0 C5.51066674 4.46101594 6.52834261 11.70980284 7.5625 18.3125 C8.17720904 23.64051889 8.17720904 23.64051889 11 28 C11.23046875 30.3125 11.23046875 30.3125 11.1875 33 C11.17783203 34.3303125 11.17783203 34.3303125 11.16796875 35.6875 C11 38 11 38 10 40 C9.34 39.67 8.68 39.34 8 39 C8 36.99956602 8.04172084 34.99869975 8.125 33 C8.25257391 29.81598187 8.25257391 29.81598187 6 27 C5.34 27.33 4.68 27.66 4 28 C4 27.34 4 26.68 4 26 C3.01 25.67 2.02 25.34 1 25 C2 24 2 24 4.5625 23.9375 C5.7690625 23.9684375 5.7690625 23.9684375 7 24 C6.27296875 23.41412109 6.27296875 23.41412109 5.53125 22.81640625 C3.53368451 20.44684515 3.60600153 19.0071277 3.5 15.9375 C3.14621097 10.29193044 1.83823499 5.32972534 0 0 Z " fill="#8A8A8A" transform="translate(90,25)"/>
<path d="M0 0 C0.33 0 0.66 0 1 0 C1.10957031 0.96679688 1.21914063 1.93359375 1.33203125 2.9296875 C2.47500034 17.38463427 2.47500034 17.38463427 10 29 C10 29.66 10 30.32 10 31 C8.35 30.67 6.7 30.34 5 30 C5 29.34 5 28.68 5 28 C4.01 27.67 3.02 27.34 2 27 C-2.342971 18.47490878 -1.67572647 9.21649558 0 0 Z " fill="#E2E2E2" transform="translate(57,26)"/>
<path d="M0 0 C0.8971875 0.309375 0.8971875 0.309375 1.8125 0.625 C-0.1875 2.625 -0.1875 2.625 -2 3.4375 C-4.9294688 5.02778306 -6.86475397 7.24560163 -9.1875 9.625 C-13.83614865 13.625 -13.83614865 13.625 -16.1875 13.625 C-16.1875 15.935 -16.1875 18.245 -16.1875 20.625 C-18.1675 20.295 -20.1475 19.965 -22.1875 19.625 C-21.5275 18.305 -20.8675 16.985 -20.1875 15.625 C-20.1875 16.615 -20.1875 17.605 -20.1875 18.625 C-19.5275 18.625 -18.8675 18.625 -18.1875 18.625 C-18.23970703 17.59439453 -18.23970703 17.59439453 -18.29296875 16.54296875 C-18.32003906 15.64191406 -18.34710938 14.74085937 -18.375 13.8125 C-18.42720703 12.47251953 -18.42720703 12.47251953 -18.48046875 11.10546875 C-18.13831002 8.20852485 -17.43356427 7.39944972 -15.1875 5.625 C-15.1875 6.945 -15.1875 8.265 -15.1875 9.625 C-14.50042969 9.07070312 -13.81335938 8.51640625 -13.10546875 7.9453125 C-12.20441406 7.22085938 -11.30335937 6.49640625 -10.375 5.75 C-9.48167969 5.03070313 -8.58835937 4.31140625 -7.66796875 3.5703125 C-2.55661488 -0.43827684 -2.55661488 -0.43827684 0 0 Z " fill="#474747" transform="translate(83.1875,97.375)"/>
<path d="M0 0 C1.0738133 3.2214399 0.97341251 5.25888431 0.8125 8.625 C0.74859831 14.4684548 1.79106476 19.06948272 5 24 C5.66 24.33 6.32 24.66 7 25 C7.12117188 23.89140625 7.24234375 22.7828125 7.3671875 21.640625 C7.53606296 20.17703766 7.70535572 18.71349843 7.875 17.25 C7.95363281 16.52039063 8.03226563 15.79078125 8.11328125 15.0390625 C8.55136176 11.33222743 8.9986215 8.19547828 11 5 C10.9278125 6.12019531 10.855625 7.24039063 10.78125 8.39453125 C10.68745044 9.86718434 10.59370317 11.33984077 10.5 12.8125 C10.42845703 13.91948242 10.42845703 13.91948242 10.35546875 15.04882812 C10.16609387 18.03824588 10 21.00374574 10 24 C8 26.1875 8 26.1875 6 28 C1.3994151 22.90649529 -2.18732758 16.81000022 -2.375 9.8125 C-2.02250553 6.22880626 -1.3331654 3.3329135 0 0 Z " fill="#2D2D2D" transform="translate(40,90)"/>
<path d="M0 0 C0.99 0 1.98 0 3 0 C4.76462683 3.08809695 5 4.23312136 5 8 C4.34 8 3.68 8 3 8 C3.433125 9.73636719 3.433125 9.73636719 3.875 11.5078125 C4.25035971 13.04678731 4.62533965 14.58585478 5 16.125 C5.19078125 16.88554688 5.3815625 17.64609375 5.578125 18.4296875 C6.6127252 22.71588834 7.2272711 26.55400901 7 31 C6.34 31 5.68 31 5 31 C2.8955987 24.62274911 2.14899325 18.21647262 1.375 11.5625 C1.2409375 10.44939453 1.106875 9.33628906 0.96875 8.18945312 C0.64077082 5.46019777 0.31800347 2.73043258 0 0 Z " fill="#363636" transform="translate(92,65)"/>
<path d="M0 0 C4.36446586 3.77467318 6.62054488 7.35881363 8 13 C8 14.32 8 15.64 8 17 C7.34 17 6.68 17 6 17 C5.34 18.32 4.68 19.64 4 21 C2 19 2 19 1.875 16.42578125 C1.91625 15.39839844 1.9575 14.37101562 2 13.3125 C2.0948264 8.38745402 1.67687402 4.61140355 0 0 Z " fill="#B8B8B8" transform="translate(106,95)"/>
<path d="M0 0 C0.66 0 1.32 0 2 0 C2 3.3 2 6.6 2 10 C1.34 10 0.68 10 0 10 C-1.11924672 13.7710005 -0.96198056 17.08493244 -0.7421875 20.9765625 C-0.82726563 21.64429687 -0.91234375 22.31203125 -1 23 C-1.99 23.66 -2.98 24.32 -4 25 C-4.16947579 23.58366664 -4.33545507 22.16691467 -4.5 20.75 C-4.5928125 19.96109375 -4.685625 19.1721875 -4.78125 18.359375 C-5 16 -5 16 -5 12 C-5.66 11.34 -6.32 10.68 -7 10 C-3.25 7 -3.25 7 -1 7 C-1.020625 6.030625 -1.04125 5.06125 -1.0625 4.0625 C-1 1 -1 1 0 0 Z " fill="#474747" transform="translate(40,82)"/>
<path d="M0 0 C3.07803667 1.15426375 4.57277214 2.26903065 6.5 4.9375 C6.25 7.6875 6.25 7.6875 5.5 9.9375 C4.18 9.6075 2.86 9.2775 1.5 8.9375 C1.17 9.5975 0.84 10.2575 0.5 10.9375 C-1.5 8.9375 -1.5 8.9375 -1.625 5.8125 C-1.58375 4.86375 -1.5425 3.915 -1.5 2.9375 C-2.82 3.9275 -4.14 4.9175 -5.5 5.9375 C-5.83 4.9475 -6.16 3.9575 -6.5 2.9375 C-4.23367014 0.83904643 -3.14750486 -0.07868762 0 0 Z " fill="#3F3F3F" transform="translate(44.5,52.0625)"/>
<path d="M0 0 C1.98 0.495 1.98 0.495 4 1 C4 6.94 4 12.88 4 19 C1 17 1 17 0.234375 14.35546875 C0.07453125 13.31003906 -0.0853125 12.26460937 -0.25 11.1875 C-0.42015625 10.14980469 -0.5903125 9.11210938 -0.765625 8.04296875 C-0.99268693 5.094948 -0.73670349 2.84683278 0 0 Z " fill="#B8B8B8" transform="translate(86,73)"/>
<path d="M0 0 C0.66 0.99 1.32 1.98 2 3 C0.71937515 4.7074998 -0.61767557 6.37373596 -2 8 C-2.66 8 -3.32 8 -4 8 C-4.19335938 8.61488281 -4.38671875 9.22976562 -4.5859375 9.86328125 C-4.84632812 10.67152344 -5.10671875 11.47976562 -5.375 12.3125 C-5.63023438 13.11300781 -5.88546875 13.91351563 -6.1484375 14.73828125 C-7 17 -7 17 -9 20 C-9.94693195 16.2983569 -10.30443767 14.60887535 -8.5625 11.125 C-8.046875 10.42375 -7.53125 9.7225 -7 9 C-7.66 9 -8.32 9 -9 9 C-9 7 -9 7 -7.625 5.5 C-7.08875 5.005 -6.5525 4.51 -6 4 C-5.34 3.34 -4.68 2.68 -4 2 C-3.34 2.33 -2.68 2.66 -2 3 C-1.34 2.01 -0.68 1.02 0 0 Z " fill="#A6A6A6" transform="translate(34,83)"/>
<path d="M0 0 C1.27875 0.103125 2.5575 0.20625 3.875 0.3125 C4.95394531 0.39951172 4.95394531 0.39951172 6.0546875 0.48828125 C8 1 8 1 10 4 C10.66 4 11.32 4 12 4 C12.33 6.64 12.66 9.28 13 12 C12.34 12 11.68 12 11 12 C11 11.34 11 10.68 11 10 C10.113125 9.79375 9.22625 9.5875 8.3125 9.375 C4.03460421 7.59926967 2.65599807 5.74964433 0 2 C0 1.34 0 0.68 0 0 Z " fill="#E1E1E1" transform="translate(63,47)"/>
<path d="M0 0 C0 0.66 0 1.32 0 2 C0.66 2 1.32 2 2 2 C1.67 3.32 1.34 4.64 1 6 C0.67 5.01 0.34 4.02 0 3 C-0.99 3.495 -0.99 3.495 -2 4 C-2.165 4.66 -2.33 5.32 -2.5 6 C-2.665 6.66 -2.83 7.32 -3 8 C-3.99 8.495 -3.99 8.495 -5 9 C-5.33 8.01 -5.66 7.02 -6 6 C-7.32 6 -8.64 6 -10 6 C-10.33 4.68 -10.66 3.36 -11 2 C-6.89657963 -0.38570952 -4.61380251 -1.49270081 0 0 Z " fill="#333333" transform="translate(74,57)"/>
<path d="M0 0 C3.37462715 0.54723683 5.08235 1.0549 8 3 C9.32 2.34 10.64 1.68 12 1 C11.34938905 2.67299959 10.67966676 4.33859237 10 6 C9.566875 7.0828125 9.566875 7.0828125 9.125 8.1875 C7.71137182 10.46501207 6.37929684 10.81035158 4 12 C2.71983165 13.00435972 1.46871878 14.04690261 0.25 15.125 C-0.36359375 15.66382812 -0.9771875 16.20265625 -1.609375 16.7578125 C-2.06828125 17.16773437 -2.5271875 17.57765625 -3 18 C-1.15014033 14.06048404 1.07565341 11.21678125 4 8 C4.66 8 5.32 8 6 8 C4.26440562 4.942048 2.61527381 2.36620011 0 0 Z " fill="#454545" transform="translate(54,93)"/>
<path d="M0 0 C0.99 0.33 1.98 0.66 3 1 C3.06058594 1.58007812 3.12117188 2.16015625 3.18359375 2.7578125 C3.26738281 3.53898437 3.35117188 4.32015625 3.4375 5.125 C3.55931641 6.27355469 3.55931641 6.27355469 3.68359375 7.4453125 C3.90875001 9.26324079 4.1983967 11.07367624 4.53125 12.875 C5.03842186 16.25614572 5.09736678 19.45805594 5.0625 22.875 C5.05347656 24.02742188 5.04445313 25.17984375 5.03515625 26.3671875 C5.02355469 27.23601562 5.01195313 28.10484375 5 29 C4.34 28.67 3.68 28.34 3 28 C0.75456896 18.93021971 0.48884237 9.30086932 0 0 Z " fill="#B9B9B9" transform="translate(90,63)"/>
<path d="M0 0 C1.32 0 2.64 0 4 0 C3.690625 0.53625 3.38125 1.0725 3.0625 1.625 C1.82172561 4.3984957 1.4090325 7.00042837 1 10 C1.66 9.67 2.32 9.34 3 9 C2.98839844 9.77085938 2.97679687 10.54171875 2.96484375 11.3359375 C2.95582031 12.33882812 2.94679688 13.34171875 2.9375 14.375 C2.92589844 15.37273437 2.91429687 16.37046875 2.90234375 17.3984375 C2.81993398 19.98432453 2.81993398 19.98432453 4 22 C2.046875 21.265625 2.046875 21.265625 0 20 C-0.609375 18.046875 -0.609375 18.046875 -0.75 15.75 C-0.80542969 14.95207031 -0.86085938 14.15414062 -0.91796875 13.33203125 C-1.01579621 10.55093641 -1.07133971 7.78224873 -1 5 C-2.65 5 -4.3 5 -6 5 C-5.195625 4.360625 -4.39125 3.72125 -3.5625 3.0625 C-1.7249496 1.59396498 -1.7249496 1.59396498 0 0 Z " fill="#A2A2A2" transform="translate(24,91)"/>
<path d="M0 0 C2.62434747 0.36197896 3.82013689 0.82656057 5.75 2.6875 C7.32663401 5.60427292 7.22275681 7.73290013 7 11 C6.34 10.01 5.68 9.02 5 8 C5.20496094 8.60328125 5.40992187 9.2065625 5.62109375 9.828125 C5.89050781 10.62734375 6.15992187 11.4265625 6.4375 12.25 C6.83775391 13.43335937 6.83775391 13.43335937 7.24609375 14.640625 C7.91954708 16.74821988 8.49150595 18.84753973 9 21 C8.34 21.33 7.68 21.66 7 22 C4.3184721 18.92307254 3.57912193 16.80265337 3.3125 12.75 C3.24675781 11.85796875 3.18101563 10.9659375 3.11328125 10.046875 C3.07589844 9.37140625 3.03851563 8.6959375 3 8 C2.01 8.33 1.02 8.66 0 9 C0 8.01 0 7.02 0 6 C0.66 6 1.32 6 2 6 C1.34 4.02 0.68 2.04 0 0 Z " fill="#878787" transform="translate(95,67)"/>
<path d="M0 0 C2.67455183 1.33727591 2.98881385 2.73288323 4.1875 5.4375 C4.55230469 6.24058594 4.91710938 7.04367188 5.29296875 7.87109375 C6 10 6 10 5 12 C4.67 12.33 4.34 12.66 4 13 C0.65836101 11.61725283 -1.25766748 10.20955991 -3 7 C-2.75925978 3.62963689 -2.41201979 2.41201979 0 0 Z " fill="#8F8F8F" transform="translate(38,105)"/>
<path d="M0 0 C0.66 1.32 1.32 2.64 2 4 C2.66 3.01 3.32 2.02 4 1 C4.00257812 1.56847656 4.00515625 2.13695313 4.0078125 2.72265625 C4.29924751 8.54164196 5.59103525 11.47766567 9.72265625 15.58984375 C11 17 11 17 11 19 C8.36 18.34 5.72 17.68 3 17 C4.32 16.34 5.64 15.68 7 15 C6.195625 14.236875 5.39125 13.47375 4.5625 12.6875 C2 10 2 10 1 7 C0.01 7.33 -0.98 7.66 -2 8 C-1.34 5.36 -0.68 2.72 0 0 Z " fill="#2E2E2E" transform="translate(81,81)"/>
<path d="M0 0 C0.99 0.33 1.98 0.66 3 1 C2.67 3.64 2.34 6.28 2 9 C1.01 9.33 0.02 9.66 -1 10 C-2.03038956 12.56042066 -2.03038956 12.56042066 -2.6875 15.5625 C-2.93886719 16.57441406 -3.19023438 17.58632813 -3.44921875 18.62890625 C-3.63097656 19.41136719 -3.81273437 20.19382812 -4 21 C-4.33 21 -4.66 21 -5 21 C-7.21379352 13.67745221 -4.05456068 7.71225118 -1 1 C-0.67 0.67 -0.34 0.34 0 0 Z " fill="#CACACA" transform="translate(36,28)"/>
<path d="M0 0 C0.33 0.66 0.66 1.32 1 2 C-0.32 2.33 -1.64 2.66 -3 3 C-3.13664062 3.86625 -3.27328125 4.7325 -3.4140625 5.625 C-4.70406417 13.05540963 -6.17130796 20.43652793 -10 27 C-10.99 26.67 -11.98 26.34 -13 26 C-12.07829409 22.95128045 -11.17441915 20.28343112 -9.5 17.5625 C-7.12172183 13.49960813 -6.12770108 9.35363141 -5.6875 4.6875 C-5.460625 3.800625 -5.23375 2.91375 -5 2 C-2.4375 0.625 -2.4375 0.625 0 0 Z " fill="#858585" transform="translate(78,68)"/>
<path d="M0 0 C3.63328617 1.45016194 5.11741577 3.22192317 7.1875 6.5 C7.95126953 7.69109375 7.95126953 7.69109375 8.73046875 8.90625 C10.98262706 12.62057878 11.2634006 15.26669447 11.5625 19.625 C11.64628906 20.81351563 11.73007813 22.00203125 11.81640625 23.2265625 C11.87699219 24.14179687 11.93757813 25.05703125 12 26 C11.34 26 10.68 26 10 26 C9.90525391 25.16082031 9.90525391 25.16082031 9.80859375 24.3046875 C8.54137877 16.00776417 4.9168241 9.3035517 1 2 C0.67 1.34 0.34 0.68 0 0 Z " fill="#C3C3C3" transform="translate(80,26)"/>
<path d="M0 0 C3.71274999 3.71274999 4.92704177 6.06660699 5.125 11.3125 C5.08375 12.199375 5.0425 13.08625 5 14 C4.34 13.67 3.68 13.34 3 13 C2.34 14.98 1.68 16.96 1 19 C0.67 19 0.34 19 0 19 C0 15.7 0 12.4 0 9 C-0.99 8.67 -1.98 8.34 -3 8 C-4.1875 4.9375 -4.1875 4.9375 -5 2 C-2.95880212 3.61594832 -0.95927063 5.2856382 1 7 C1 7.66 1 8.32 1 9 C1.66 9 2.32 9 3 9 C2.01 6.03 1.02 3.06 0 0 Z " fill="#878787" transform="translate(104,94)"/>
<path d="M0 0 C0.33 0.66 0.66 1.32 1 2 C0.34 2.66 -0.32 3.32 -1 4 C0.134375 4.28875 1.26875 4.5775 2.4375 4.875 C3.613125 5.24625 4.78875 5.6175 6 6 C6.33 6.66 6.66 7.32 7 8 C4.69 7.67 2.38 7.34 0 7 C1.32 8.32 2.64 9.64 4 11 C3.67 11.66 3.34 12.32 3 13 C2.236875 12.175 1.47375 11.35 0.6875 10.5 C-1.75434142 7.65944803 -1.75434142 7.65944803 -5 8 C-5 7.34 -5 6.68 -5 6 C-8.12197478 7.3089572 -8.12197478 7.3089572 -10 10 C-10.66 9.67 -11.32 9.34 -12 9 C-8.77697025 4.16545537 -5.17379682 2.24783891 0 0 Z " fill="#C6C6C6" transform="translate(65,15)"/>
<path d="M0 0 C5.66160521 3.64859002 5.66160521 3.64859002 7.625 5.6875 C9.32154637 7.30693062 10.71949044 7.6068087 13 8 C12.67 8.66 12.34 9.32 12 10 C8.7 10 5.4 10 2 10 C1.7834375 8.63875 1.7834375 8.63875 1.5625 7.25 C1.13590527 4.78523044 0.64925779 2.41152893 0 0 Z " fill="#343434" transform="translate(45,76)"/>
<path d="M0 0 C-0.4183447 5.86429621 -2.02766753 9.25576381 -5.5 13.9375 C-5.91636719 14.52595703 -6.33273438 15.11441406 -6.76171875 15.72070312 C-7.80479853 17.17392592 -8.89810779 18.59084938 -10 20 C-10.33 20 -10.66 20 -11 20 C-11.3125 17.75 -11.3125 17.75 -11 15 C-8.6875 13 -8.6875 13 -6 11 C-4.21037181 8.38142305 -4.21037181 8.38142305 -3 6 C-3.99 5.34 -4.98 4.68 -6 4 C-5.67 3.01 -5.34 2.02 -5 1 C-3.28960011 0.41205004 -1.81522119 0 0 0 Z " fill="#494949" transform="translate(31,63)"/>
<path d="M0 0 C0.66 0 1.32 0 2 0 C-0.16585466 11.344953 -0.16585466 11.344953 -3 16 C-6.21131888 17.9057335 -9.2843164 18.72706164 -13 19 C-13.99 18.67 -14.98 18.34 -16 18 C-15.33613281 17.86207031 -14.67226563 17.72414063 -13.98828125 17.58203125 C-9.30378167 16.2348102 -6.70127031 15.25788397 -4.2578125 10.875 C-3.04762406 7.60963946 -1.99987474 4.33446599 -1 1 C-0.67 0.67 -0.34 0.34 0 0 Z " fill="#7A7A7A" transform="translate(64,98)"/>
<path d="M0 0 C0.99 0 1.98 0 3 0 C3 0.99 3 1.98 3 3 C4.32 3.33 5.64 3.66 7 4 C7 5.32 7 6.64 7 8 C3.7 8 0.4 8 -3 8 C-2.67 6.02 -2.34 4.04 -2 2 C-0.515 2.99 -0.515 2.99 1 4 C1.33 3.01 1.66 2.02 2 1 C1.34 0.67 0.68 0.34 0 0 Z " fill="#515151" transform="translate(52,120)"/>
<path d="M0 0 C4.62146283 1.81557468 6.86642386 5.05672662 9.3125 9.25 C10.31852037 13.27408148 9.65375987 16.94492186 9 21 C8.34 20.67 7.68 20.34 7 20 C6.46632328 17.97672014 6.02276253 15.92932646 5.625 13.875 C4.47069026 8.49414076 3.06446714 4.54386507 0 0 Z " fill="#BCBCBC" transform="translate(73,24)"/>
<path d="M0 0 C0.66 0 1.32 0 2 0 C2.28875 1.2375 2.5775 2.475 2.875 3.75 C3.61839971 6.73941584 4.49783485 9.29610274 6 12 C6.33 12.99 6.66 13.98 7 15 C6.01 16.485 6.01 16.485 5 18 C4.34 18 3.68 18 3 18 C2.49309416 15.93918639 1.99475381 13.87626474 1.5 11.8125 C1.2215625 10.66394531 0.943125 9.51539062 0.65625 8.33203125 C0.08504615 5.43181171 -0.13283779 2.93903615 0 0 Z " fill="#C3C3C3" transform="translate(96,75)"/>
<path d="M0 0 C0.99 0 1.98 0 3 0 C4.625 2.5 4.625 2.5 6 5 C6.33 5 6.66 5 7 5 C7.33 4.01 7.66 3.02 8 2 C8.556875 2.680625 8.556875 2.680625 9.125 3.375 C11.54264685 5.47029394 13.95430602 6.12013285 17 7 C16.01 7.66 15.02 8.32 14 9 C12.125 8.625 12.125 8.625 10 8 C8.7934375 8.12375 8.7934375 8.12375 7.5625 8.25 C5 8 5 8 2.1875 5.6875 C0 3 0 3 0 0 Z " fill="#7E7E7E" transform="translate(49,50)"/>
<path d="M0 0 C0.87699053 2.96827563 1.02904179 5.41916426 0.875 8.5 C0.78373378 14.61483652 2.31441016 20.16063519 4 26 C-0.01408132 22.21079718 -1.78549818 18.48302105 -2.2578125 13.015625 C-2.41130672 4.02524907 -2.41130672 4.02524907 0 0 Z " fill="#747474" transform="translate(42,89)"/>
<path d="M0 0 C1.20550132 3.61650395 0.93782423 5.3208434 0 9 C-2.38956406 13.35242026 -4.55164063 15.77582031 -9 18 C-8.23046687 14.15233433 -6.7602947 12.7602947 -4 10 C-4 9.01 -4 8.02 -4 7 C-2.82851724 4.55766765 -1.40263342 2.32311159 0 0 Z " fill="#959595" transform="translate(78,81)"/>
<path d="M0 0 C-0.06006078 1.45947705 -0.1488689 2.91779272 -0.25 4.375 C-0.29640625 5.18710937 -0.3428125 5.99921875 -0.390625 6.8359375 C-1 9 -1 9 -2.859375 10.2890625 C-5 11 -5 11 -8 11 C-7.33333333 9.33333333 -6.66666667 7.66666667 -6 6 C-5.690625 5.0925 -5.38125 4.185 -5.0625 3.25 C-4.711875 2.5075 -4.36125 1.765 -4 1 C-1 0 -1 0 0 0 Z " fill="#B1B1B1" transform="translate(84,58)"/>
<path d="M0 0 C6.27234334 5.88796575 6.86295517 13.85340819 8 22 C6.68 21.67 5.36 21.34 4 21 C3.96261719 20.32195313 3.92523438 19.64390625 3.88671875 18.9453125 C3.41514671 12.26933186 2.18078865 6.32291553 0 0 Z " fill="#939393" transform="translate(90,25)"/>
<path d="M0 0 C0.66 0 1.32 0 2 0 C2 2.97 2 5.94 2 9 C0.35 9.33 -1.3 9.66 -3 10 C-3.66 11.98 -4.32 13.96 -5 16 C-6.24337885 12.26986346 -5.55180675 11.05797481 -4.1875 7.4375 C-3.83042969 6.46683594 -3.47335938 5.49617188 -3.10546875 4.49609375 C-2 2 -2 2 0 0 Z " fill="#D1D1D1" transform="translate(92,51)"/>
<path d="M0 0 C0.66 0 1.32 0 2 0 C2.48198463 1.24891614 2.96045677 2.49918808 3.4375 3.75 C3.70433594 4.44609375 3.97117187 5.1421875 4.24609375 5.859375 C5.8367757 10.37592272 6.0926001 14.18479469 6 19 C5.34 19 4.68 19 4 19 C2.68 12.73 1.36 6.46 0 0 Z " fill="#CACACA" transform="translate(67,29)"/>
<path d="M0 0 C0.66 1.32 1.32 2.64 2 4 C1.01 4.495 1.01 4.495 0 5 C0.103125 5.928125 0.20625 6.85625 0.3125 7.8125 C0 11 0 11 -2.3125 12.9375 C-5 14 -5 14 -8 13 C-7.59007812 12.39671875 -7.18015625 11.7934375 -6.7578125 11.171875 C-6.21898437 10.37265625 -5.68015625 9.5734375 -5.125 8.75 C-4.59132812 7.96109375 -4.05765625 7.1721875 -3.5078125 6.359375 C-2.18177985 4.28444308 -1.05071825 2.22385028 0 0 Z " fill="#262626" transform="translate(40,78)"/>
<path d="M0 0 C0.99 0.33 1.98 0.66 3 1 C3 3.64 3 6.28 3 9 C2.34 9 1.68 9 1 9 C0.67 9.66 0.34 10.32 0 11 C-0.66 11 -1.32 11 -2 11 C-2.25 3.375 -2.25 3.375 0 0 Z " fill="#E2E2E2" transform="translate(79,49)"/>
<path d="M0 0 C0.33 0 0.66 0 1 0 C1.40850553 7.08076251 -0.09579269 13.19925959 -2 20 C-2.33 20 -2.66 20 -3 20 C-3 17.69 -3 15.38 -3 13 C-3.33 13 -3.66 13 -4 13 C-4.125 10.625 -4.125 10.625 -4 8 C-3.34 7.34 -2.68 6.68 -2 6 C-1.28591666 4.01643517 -0.61382258 2.01684563 0 0 Z " fill="#898989" transform="translate(84,61)"/>
<path d="M0 0 C0.33 0 0.66 0 1 0 C1.03738281 0.845625 1.07476562 1.69125 1.11328125 2.5625 C1.50254211 9.27915805 2.0707327 14.90712402 5 21 C5.66 21.33 6.32 21.66 7 22 C7 22.66 7 23.32 7 24 C4.50638429 22.79618552 2.31856917 21.54571278 0 20 C-0.34057617 17.93701172 -0.34057617 17.93701172 -0.29296875 15.4296875 C-0.28330078 14.53378906 -0.27363281 13.63789062 -0.26367188 12.71484375 C-0.23853516 11.77769531 -0.21339844 10.84054688 -0.1875 9.875 C-0.17396484 8.93011719 -0.16042969 7.98523437 -0.14648438 7.01171875 C-0.11106306 4.67391221 -0.06167271 2.33723763 0 0 Z " fill="#B4B4B4" transform="translate(55,32)"/>
<path d="M0 0 C0.33 0.66 0.66 1.32 1 2 C0.22265625 4.06640625 0.22265625 4.06640625 -0.9375 6.5625 C-3.10151032 11.67134911 -3.35509484 15.49602991 -3 21 C-3.66 20.01 -4.32 19.02 -5 18 C-5.66 18.33 -6.32 18.66 -7 19 C-6.67422369 11.83292123 -3.34556372 6.23072876 0 0 Z " fill="#9D9D9D" transform="translate(34,31)"/>
<path d="M0 0 C2 1.0625 2 1.0625 4 3 C4.52238806 8.95522388 4.52238806 8.95522388 3 12 C2.34 12 1.68 12 1 12 C1 11.01 1 10.02 1 9 C0.34 9 -0.32 9 -1 9 C-2.0326802 6.21176345 -2.04509293 5.1322726 -1.0625 2.25 C-0.711875 1.5075 -0.36125 0.765 0 0 Z " fill="#ABABAB" transform="translate(37,55)"/>
<path d="M0 0 C1.32 0.33 2.64 0.66 4 1 C4.02698189 2.62490954 4.04638757 4.24994633 4.0625 5.875 C4.07410156 6.77992187 4.08570312 7.68484375 4.09765625 8.6171875 C4 11 4 11 3 13 C2.34 13 1.68 13 1 13 C0.67 8.71 0.34 4.42 0 0 Z " fill="#979797" transform="translate(100,102)"/>
<path d="M0 0 C2.31 0.66 4.62 1.32 7 2 C5.25 7.75 5.25 7.75 3 10 C0.70366176 6.55549263 0.45983515 4.06187717 0 0 Z " fill="#A7A7A7" transform="translate(84,50)"/>
<path d="M0 0 C2.05137315 3.48216283 2.56818592 6.77275657 3.125 10.75 C3.29257813 11.92046875 3.46015625 13.0909375 3.6328125 14.296875 C3.75398438 15.18890625 3.87515625 16.0809375 4 17 C0.92607673 14.95071782 0.34051602 14.2555389 -1 11 C-1.2475 10.401875 -1.495 9.80375 -1.75 9.1875 C-2.12927326 5.86885898 -1.0246084 3.1340963 0 0 Z " fill="#909090" transform="translate(84,76)"/>
<path d="M0 0 C2.32224304 4.33485368 3.13471301 7.83951522 3.0625 12.75 C3.05347656 13.54921875 3.04445313 14.3484375 3.03515625 15.171875 C3.01775391 16.07679687 3.01775391 16.07679687 3 17 C2.34 17 1.68 17 1 17 C-0.53266582 13.93466836 -0.10276471 10.73245728 -0.0625 7.375 C-0.05798828 6.66859375 -0.05347656 5.9621875 -0.04882812 5.234375 C-0.03703875 3.48954725 -0.01910324 1.744763 0 0 Z " fill="#363636" transform="translate(90,74)"/>
<path d="M0 0 C0 3 0 3 -1.4375 6.375 C-3.6857049 12.03793121 -3.73363103 17.97455026 -4 24 C-4.33 24 -4.66 24 -5 24 C-5.16852247 22.39602723 -5.33474886 20.7918131 -5.5 19.1875 C-5.5928125 18.29417969 -5.685625 17.40085937 -5.78125 16.48046875 C-6.17110374 12.05980584 -5.58200393 9.79958837 -3.5625 5.875 C-3.11003906 4.98554688 -2.65757813 4.09609375 -2.19140625 3.1796875 C-1 1 -1 1 0 0 Z " fill="#979797" transform="translate(53,25)"/>
<path d="M0 0 C2.03219488 3.40351338 2.36891039 6.3232927 2.625 10.25 C2.69976562 11.32765625 2.77453125 12.4053125 2.8515625 13.515625 C2.92503906 14.74539062 2.92503906 14.74539062 3 16 C2.34 16 1.68 16 1 16 C-1.0662997 10.28728907 -1.0006709 5.96345767 0 0 Z " fill="#494949" transform="translate(96,80)"/>
<path d="M0 0 C0.66 0.33 1.32 0.66 2 1 C2 5.95 2 10.9 2 16 C0.68 16.33 -0.64 16.66 -2 17 C-1.85941524 14.54126232 -1.71277001 12.08314825 -1.5625 9.625 C-1.52318359 8.92632812 -1.48386719 8.22765625 -1.44335938 7.5078125 C-1.11328125 2.2265625 -1.11328125 2.2265625 0 0 Z " fill="#D6D6D6" transform="translate(50,34)"/>
<path d="M0 0 C1.32 0.66 2.64 1.32 4 2 C3.1875 4.4375 3.1875 4.4375 2 7 C1.01 7.33 0.02 7.66 -1 8 C-1.33 8.66 -1.66 9.32 -2 10 C-2.66 10 -3.32 10 -4 10 C-2.25 2.25 -2.25 2.25 0 0 Z " fill="#B9B9B9" transform="translate(71,88)"/>
<path d="M0 0 C5.00178839 1.27952726 7.64398848 3.08465323 11 7 C11.69507853 8.31874488 12.3680274 9.64987672 13 11 C8.17403931 7.84577733 3.42442592 4.71080883 -1 1 C-0.67 0.67 -0.34 0.34 0 0 Z " fill="#AAAAAA" transform="translate(77,14)"/>
<path d="M0 0 C0.66 0 1.32 0 2 0 C1.814375 0.5775 1.62875 1.155 1.4375 1.75 C0.95976454 4.20692525 1.24270636 5.64397534 2 8 C-0.64 8 -3.28 8 -6 8 C-5.04956626 6.66102417 -4.08940853 5.32894573 -3.125 4 C-2.59132812 3.2575 -2.05765625 2.515 -1.5078125 1.75 C-1.01023437 1.1725 -0.51265625 0.595 0 0 Z " fill="#8F8F8F" transform="translate(41,120)"/>
<path d="M0 0 C1.25127906 3.54667178 0.72285053 5.72253438 -0.4375 9.25 C-0.72496094 10.14203125 -1.01242188 11.0340625 -1.30859375 11.953125 C-1.53675781 12.62859375 -1.76492187 13.3040625 -2 14 C-2.66 14 -3.32 14 -4 14 C-3.66009167 8.62007164 -3.31442207 4.46726453 0 0 Z " fill="#2F2F2F" transform="translate(30,92)"/>
<path d="M0 0 C0.66 0.33 1.32 0.66 2 1 C1.6083965 6.95507399 0.62875405 11.62819824 -2 17 C-3.38100027 14.23799945 -2.71324759 12.63070343 -2.125 9.625 C-1.94195312 8.66851562 -1.75890625 7.71203125 -1.5703125 6.7265625 C-1.09766087 4.46689922 -0.58218326 2.23346668 0 0 Z " fill="#CBCBCB" transform="translate(35,65)"/>
<path d="M0 0 C1.07999887 3.2399966 0.92129428 4.38363535 0.1875 7.625 C0.01605469 8.42164062 -0.15539063 9.21828125 -0.33203125 10.0390625 C-1 12 -1 12 -3 13 C-3.8304947 9.03208086 -4.29783331 5.89349993 -3 2 C-2.01 1.34 -1.02 0.68 0 0 Z " fill="#A8A8A8" transform="translate(39,68)"/>
<path d="M0 0 C0.33 0 0.66 0 1 0 C0.9278125 1.12019531 0.855625 2.24039063 0.78125 3.39453125 C0.68745044 4.86718434 0.59370317 6.33984077 0.5 7.8125 C0.42845703 8.91948242 0.42845703 8.91948242 0.35546875 10.04882812 C0.16609387 13.03824588 0 16.00374574 0 19 C-0.99 19 -1.98 19 -3 19 C-2.01 12.73 -1.02 6.46 0 0 Z " fill="#3C3C3C" transform="translate(50,95)"/>
<path d="M0 0 C0.66 0.33 1.32 0.66 2 1 C0.32971708 4.94794145 -2.1795565 7.81796118 -5 11 C-5.33 11 -5.66 11 -6 11 C-6.375 8.875 -6.375 8.875 -6 6 C-4.20659643 3.76086748 -2.16547337 1.87545461 0 0 Z " fill="#999999" transform="translate(19,83)"/>
<path d="M0 0 C0 1.65 0 3.3 0 5 C0.99 5.33 1.98 5.66 3 6 C3 6.66 3 7.32 3 8 C1.02 8.33 -0.96 8.66 -3 9 C-3 6.36 -3 3.72 -3 1 C-1 0 -1 0 0 0 Z " fill="#DADADA" transform="translate(94,41)"/>
<path d="M0 0 C0.66 0 1.32 0 2 0 C2.33 2.31 2.66 4.62 3 7 C2.34 7 1.68 7 1 7 C0.67 7.99 0.34 8.98 0 10 C-0.33 10 -0.66 10 -1 10 C-1.02689216 8.52093108 -1.04634621 7.04172517 -1.0625 5.5625 C-1.07410156 4.73878906 -1.08570312 3.91507812 -1.09765625 3.06640625 C-1 1 -1 1 0 0 Z " fill="#CDCDCD" transform="translate(111,105)"/>
<path d="M0 0 C2.32590854 3.63423209 2.16265833 6.77088331 2 11 C1.01 11.33 0.02 11.66 -1 12 C-1.92470553 7.28400182 -2.22923777 4.32734391 0 0 Z " fill="#808080" transform="translate(22,99)"/>
<path d="M0 0 C0.84051229 2.35343441 1.08353007 3.68444196 0.4375 6.125 C-1.59995095 8.78254472 -3.83141251 9.17341196 -7 10 C-5.33248852 6.05860922 -2.77289351 3.2107188 0 0 Z " fill="#B0B0B0" transform="translate(31,75)"/>
<path d="M0 0 C2.3125 0.8125 2.3125 0.8125 4 2 C4 2.99 4 3.98 4 5 C2.35 5.33 0.7 5.66 -1 6 C-1 5.34 -1 4.68 -1 4 C-2.32 3.67 -3.64 3.34 -5 3 C-2.75 1.375 -2.75 1.375 0 0 Z " fill="#C0C0C0" transform="translate(49,18)"/>
<path d="M0 0 C0.66 0.33 1.32 0.66 2 1 C1.67 1.99 1.34 2.98 1 4 C0.64763503 5.99673484 0.31165441 7.99650739 0 10 C-0.66 8.68 -1.32 7.36 -2 6 C-4.32357511 5.81509993 -4.32357511 5.81509993 -7 8 C-5.50902342 4.2047869 -3.24299151 2.38957269 0 0 Z " fill="#2B2B2B" transform="translate(81,99)"/>
<path d="M0 0 C0.33 0 0.66 0 1 0 C1.33 3.96 1.66 7.92 2 12 C-0.97 11.505 -0.97 11.505 -4 11 C-3.34 9.68 -2.68 8.36 -2 7 C-2 7.99 -2 8.98 -2 10 C-1.34 10 -0.68 10 0 10 C0 6.7 0 3.4 0 0 Z " fill="#626262" transform="translate(65,106)"/>
<path d="M0 0 C0.99 0.33 1.98 0.66 3 1 C1.375 7.75 1.375 7.75 -2 10 C-1.125 2.25 -1.125 2.25 0 0 Z " fill="#232323" transform="translate(22,110)"/>
<path d="M0 0 C-1.37154504 2.95409701 -2.98863724 5.44008376 -5 8 C-5.33 7.01 -5.66 6.02 -6 5 C-8.01508358 4.26676204 -8.01508358 4.26676204 -10 4 C-4.5 0 -4.5 0 0 0 Z " fill="#757575" transform="translate(28,91)"/>
<path d="M0 0 C0.99 0.33 1.98 0.66 3 1 C3 3.31 3 5.62 3 8 C1.68 8 0.36 8 -1 8 C-0.67 5.36 -0.34 2.72 0 0 Z " fill="#1E1E1E" transform="translate(87,65)"/>
<path d="M0 0 C2.0625 1.625 2.0625 1.625 4 4 C3.84079772 7.90045589 3.17917221 9.73124169 1 13 C0.34 12.67 -0.32 12.34 -1 12 C-0.67 11.67 -0.34 11.34 0 11 C0.07226502 9.14712498 0.0838122 7.29166122 0.0625 5.4375 C0.05347656 4.42558594 0.04445313 3.41367187 0.03515625 2.37109375 C0.02355469 1.58863281 0.01195313 0.80617187 0 0 Z " fill="#DEDEDE" transform="translate(95,51)"/>
<path d="M0 0 C0.26554687 0.57234375 0.53109375 1.1446875 0.8046875 1.734375 C2.05676891 4.1076012 3.4936352 6.12213286 5.125 8.25 C5.93324219 9.30960938 5.93324219 9.30960938 6.7578125 10.390625 C7.16773438 10.92171875 7.57765625 11.4528125 8 12 C7.01 12.495 7.01 12.495 6 13 C4.02 10.69 2.04 8.38 0 6 C-0.99 6.495 -0.99 6.495 -2 7 C-1.42415568 4.61435923 -0.77772405 2.33317216 0 0 Z " fill="#3D3D3D" transform="translate(34,108)"/>
<path d="M0 0 C5.875 4.625 5.875 4.625 7 8 C6.87890625 10.26171875 6.87890625 10.26171875 6.5625 12.6875 C6.46066406 13.49574219 6.35882813 14.30398437 6.25390625 15.13671875 C6.12822266 16.05904297 6.12822266 16.05904297 6 17 C5.67 17 5.34 17 5 17 C5 13.7 5 10.4 5 7 C4.01 6.67 3.02 6.34 2 6 C0.8125 2.9375 0.8125 2.9375 0 0 Z " fill="#515151" transform="translate(99,96)"/>
<path d="M0 0 C1.32 0.66 2.64 1.32 4 2 C4 3.72082924 3.4277972 5.34228586 3 7 C2.01 7 1.02 7 0 7 C-0.33 6.01 -0.66 5.02 -1 4 C-1.99 4.495 -1.99 4.495 -3 5 C-1.125 1.125 -1.125 1.125 0 0 Z " fill="#494949" transform="translate(43,121)"/>
<path d="M0 0 C0.66 0 1.32 0 2 0 C1.44271087 3.34373475 0.64826111 6.03312999 -1 9 C-1.66 9 -2.32 9 -3 9 C-3.33 9.66 -3.66 10.32 -4 11 C-3.39301257 6.87248551 -1.96189209 3.6678852 0 0 Z " fill="#939393" transform="translate(64,98)"/>
<path d="M0 0 C2.62434747 0.36197896 3.82013689 0.82656057 5.75 2.6875 C7.32663401 5.60427292 7.22275681 7.73290013 7 11 C5 8 5 8 4 5 C3.34 5 2.68 5 2 5 C1.34 3.35 0.68 1.7 0 0 Z " fill="#727272" transform="translate(95,67)"/>
<path d="M0 0 C1.11375 0.3403125 1.11375 0.3403125 2.25 0.6875 C1.26 1.0175 0.27 1.3475 -0.75 1.6875 C-0.75 3.9975 -0.75 6.3075 -0.75 8.6875 C-1.08 8.6875 -1.41 8.6875 -1.75 8.6875 C-1.75 6.7075 -1.75 4.7275 -1.75 2.6875 C-3.07 3.6775 -4.39 4.6675 -5.75 5.6875 C-6.08 4.6975 -6.41 3.7075 -6.75 2.6875 C-4.29511132 0.41445492 -3.41240272 -0.38777304 0 0 Z " fill="#4D4D4D" transform="translate(44.75,52.3125)"/>
<path d="M0 0 C0.99 0 1.98 0 3 0 C2.33333333 3.33333333 1.66666667 6.66666667 1 10 C0.34 10 -0.32 10 -1 10 C-1.125 2.25 -1.125 2.25 0 0 Z " fill="#B0B0B0" transform="translate(39,45)"/>
<path d="M0 0 C0.66 0 1.32 0 2 0 C1.01 3.3 0.02 6.6 -1 10 C-1.66 9.34 -2.32 8.68 -3 8 C-2.54545455 2.54545455 -2.54545455 2.54545455 0 0 Z " fill="#B6B6B6" transform="translate(27,93)"/>
<path d="M0 0 C0.46019531 0.93005859 0.46019531 0.93005859 0.9296875 1.87890625 C1.62259684 3.2520806 2.3526687 4.60737388 3.125 5.9375 C4.17440531 8.41109822 4.14780359 10.33953538 4 13 C3.01 12.34 2.02 11.68 1 11 C0.48828125 8.3984375 0.48828125 8.3984375 0.3125 5.375 C0.24675781 4.37210937 0.18101563 3.36921875 0.11328125 2.3359375 C0.07589844 1.56507812 0.03851563 0.79421875 0 0 Z " fill="#C7C7C7" transform="translate(86,79)"/>
<path d="M0 0 C-2.62198774 2.15377564 -4.64404172 3.40072174 -8 4 C-8 3.34 -8 2.68 -8 2 C-9.32 1.67 -10.64 1.34 -12 1 C-3.96428571 -1.27678571 -3.96428571 -1.27678571 0 0 Z " fill="#444444" transform="translate(66,82)"/>
<path d="M0 0 C3.80625982 1.49531636 5.77940501 3.58980056 8 7 C8.25 9.8125 8.25 9.8125 8 12 C6 9 6 9 6 7 C5.34 7 4.68 7 4 7 C2.02 3.535 2.02 3.535 0 0 Z " fill="#C3C3C3" transform="translate(73,24)"/>
<path d="M0 0 C1 2 1 2 1 5 C0.67 5.99 0.34 6.98 0 8 C-1.32 7.67 -2.64 7.34 -4 7 C-3.43628586 3.73045798 -2.50037734 2.17424117 0 0 Z " fill="#ABABAB" transform="translate(99,60)"/>
<path d="M0 0 C0.33 0 0.66 0 1 0 C0.67 2.97 0.34 5.94 0 9 C-1.32 9.33 -2.64 9.66 -4 10 C-2.8905928 6.51329166 -1.73662334 3.22515763 0 0 Z " fill="#CECECE" transform="translate(78,73)"/>
<path d="M0 0 C1.39195915 4.17587745 -0.17676781 6.13474776 -2 10 C-2.99 9.67 -3.98 9.34 -5 9 C-4.42906864 5.6885981 -3.45395174 4.24945577 -1 2 C-0.67 1.34 -0.34 0.68 0 0 Z " fill="#393939" transform="translate(31,115)"/>
<path d="M0 0 C0 2.31 0 4.62 0 7 C-0.66 7 -1.32 7 -2 7 C-2.66 6.34 -3.32 5.68 -4 5 C-4 3.68 -4 2.36 -4 1 C-2 0 -2 0 0 0 Z " fill="#AAAAAA" transform="translate(65,109)"/>
<path d="M0 0 C2 2 2 2 2.25 5.375 C2.02515633 8.63523324 1.7239511 10.30632641 0 13 C-0.83796731 8.34462607 -1.0161692 4.62921525 0 0 Z " fill="#2B2B2B" transform="translate(96,101)"/>
<path d="M0 0 C0.33 0 0.66 0 1 0 C2.28571429 8.57142857 2.28571429 8.57142857 1 12 C0.34 12 -0.32 12 -1 12 C-1.02712066 10.56260487 -1.04645067 9.12506137 -1.0625 7.6875 C-1.07410156 6.88699219 -1.08570312 6.08648437 -1.09765625 5.26171875 C-1 3 -1 3 0 0 Z " fill="#AAAAAA" transform="translate(79,75)"/>
<path d="M0 0 C1 2 1 2 0.125 5 C-1 8 -1 8 -2 10 C-3.32 9.67 -4.64 9.34 -6 9 C-6 7 -6 7 -4.125 5.0625 C-3.42375 4.381875 -2.7225 3.70125 -2 3 C-1.34 2.01 -0.68 1.02 0 0 Z " fill="#AAAAAA" transform="translate(75,63)"/>
<path d="M0 0 C3 1 3 1 4.1875 3.0625 C4.455625 3.701875 4.72375 4.34125 5 5 C2.69 4.67 0.38 4.34 -2 4 C-2 3.01 -2 2.02 -2 1 C-1.34 0.67 -0.68 0.34 0 0 Z " fill="#9F9F9F" transform="translate(66,62)"/>
<path d="M0 0 C0.99 0 1.98 0 3 0 C3.99 1.98 4.98 3.96 6 6 C5.01 6.495 5.01 6.495 4 7 C2 5.1875 2 5.1875 0 3 C0 2.01 0 1.02 0 0 Z " fill="#A6A6A6" transform="translate(49,50)"/>
<path d="M0 0 C0.66 1.32 1.32 2.64 2 4 C1.34 4.66 0.68 5.32 0 6 C-0.99 6 -1.98 6 -3 6 C-3 5.34 -3 4.68 -3 4 C-3.99 3.67 -4.98 3.34 -6 3 C-5 2 -5 2 -2.4375 1.9375 C-1.2309375 1.9684375 -1.2309375 1.9684375 0 2 C0 1.34 0 0.68 0 0 Z " fill="#7B7B7B" transform="translate(97,47)"/>
<path d="M0 0 C1.4540625 0.0309375 1.4540625 0.0309375 2.9375 0.0625 C0.05662454 2.46322955 -2.62654834 4.53541037 -6.0625 6.0625 C-3.76028481 0.07674051 -3.76028481 0.07674051 0 0 Z " fill="#A5A5A5" transform="translate(43.0625,21.9375)"/>
<path d="M0 0 C3 2 3 2 3.6875 4.125 C3.790625 4.74375 3.89375 5.3625 4 6 C2.35 6 0.7 6 -1 6 C-0.67 4.02 -0.34 2.04 0 0 Z " fill="#858585" transform="translate(50,122)"/>
<path d="M0 0 C0.99 0 1.98 0 3 0 C3 0.66 3 1.32 3 2 C3.66 2.33 4.32 2.66 5 3 C3.68 4.32 2.36 5.64 1 7 C0.67 4.69 0.34 2.38 0 0 Z " fill="#6C6C6C" transform="translate(30,91)"/>
<path d="M0 0 C0.66 0 1.32 0 2 0 C1.34 1.98 0.68 3.96 0 6 C-1.32 6 -2.64 6 -4 6 C-2.7260411 3.96166576 -1.38938077 1.96147874 0 0 Z " fill="#C4C4C4" transform="translate(75,82)"/>
<path d="M0 0 C0 4.01474237 -1.66781767 5.81975137 -4 9 C-4.33 9 -4.66 9 -5 9 C-5.3125 6.75 -5.3125 6.75 -5 4 C-2.5 1.6875 -2.5 1.6875 0 0 Z " fill="#2A2A2A" transform="translate(25,74)"/>
<path d="M0 0 C0.33 0 0.66 0 1 0 C1.375 2.25 1.375 2.25 1 5 C-2 7.3125 -2 7.3125 -5 9 C-3.75471468 5.55151758 -2.38532951 2.80016942 0 0 Z " fill="#E9E9E9" transform="translate(47,38)"/>
<path d="M0 0 C3.63 0 7.26 0 11 0 C10.34 0.66 9.68 1.32 9 2 C7.68 2 6.36 2 5 2 C4.67 2.66 4.34 3.32 4 4 C3.67 3.34 3.34 2.68 3 2 C2.01 1.34 1.02 0.68 0 0 Z " fill="#464646" transform="translate(55,122)"/>
<path d="M0 0 C1.42944945 2.35438733 2.08661261 3.48032433 1.625 6.25 C1.41875 6.8275 1.2125 7.405 1 8 C-2 4.375 -2 4.375 -2 1 C-1.34 0.67 -0.68 0.34 0 0 Z " fill="#C6C6C6" transform="translate(100,111)"/>
<path d="M0 0 C0.33 0 0.66 0 1 0 C1.33 2.97 1.66 5.94 2 9 C1.01 9 0.02 9 -1 9 C-2.0326802 6.21176345 -2.04509293 5.1322726 -1.0625 2.25 C-0.711875 1.5075 -0.36125 0.765 0 0 Z " fill="#C0C0C0" transform="translate(37,55)"/>
<path d="M0 0 C0.99 0.66 1.98 1.32 3 2 C-0.63423209 4.32590854 -3.77088331 4.16265833 -8 4 C-5.28790442 2.19193628 -3.10633303 0.93189991 0 0 Z " fill="#4B4B4B" transform="translate(59,113)"/>
<path d="M0 0 C4.75 0.875 4.75 0.875 7 2 C6.67 3.32 6.34 4.64 6 6 C3.97945196 4.35830472 1.97956942 2.69088222 0 1 C0 0.67 0 0.34 0 0 Z " fill="#4B4B4B" transform="translate(54,93)"/>
<path d="M0 0 C0.66 0 1.32 0 2 0 C2.66 2.64 3.32 5.28 4 8 C3.34 8 2.68 8 2 8 C-0.1519437 4.77208445 -0.20086443 3.71599191 0 0 Z " fill="#B7B7B7" transform="translate(96,75)"/>
<path d="M0 0 C0.99 0 1.98 0 3 0 C3.66 1.98 4.32 3.96 5 6 C4.01 6 3.02 6 2 6 C0 3 0 3 0 0 Z " fill="#171717" transform="translate(92,65)"/>
<path d="M0 0 C1.32 0 2.64 0 4 0 C4.6875 1.8125 4.6875 1.8125 5 4 C3.5625 5.75 3.5625 5.75 2 7 C1 4 1 4 2 1 C1.34 0.67 0.68 0.34 0 0 Z " fill="#E8E8E8" transform="translate(70,60)"/>
<path d="M0 0 C0.93423645 3.01031744 1.04449911 3.86650268 0 7 C-0.99 7.33 -1.98 7.66 -3 8 C-2.45276317 4.62537285 -1.9451 2.91765 0 0 Z " fill="#B9B9B9" transform="translate(65,102)"/>
<path d="M0 0 C0.66 0 1.32 0 2 0 C2.33 2.64 2.66 5.28 3 8 C2.34 8 1.68 8 1 8 C1 7.34 1 6.68 1 6 C0.34 6 -0.32 6 -1 6 C-0.67 4.02 -0.34 2.04 0 0 Z " fill="#D7D7D7" transform="translate(73,51)"/>
<path d="M0 0 C0.6875 1.8125 0.6875 1.8125 1 4 C-0.3125 5.75 -0.3125 5.75 -2 7 C-2.66 7 -3.32 7 -4 7 C-2.92598892 4.08482708 -2.22189824 2.22189824 0 0 Z " fill="#E9E9E9" transform="translate(48,31)"/>
<path d="M0 0 C4.67692308 1.47692308 4.67692308 1.47692308 6.3125 4.125 C6.539375 4.74375 6.76625 5.3625 7 6 C6.34 6.66 5.68 7.32 5 8 C4.67 6.68 4.34 5.36 4 4 C3.01 4 2.02 4 1 4 C0.67 2.68 0.34 1.36 0 0 Z " fill="#DBDBDB" transform="translate(65,25)"/>
</svg>
