<svg class="icon" width="24" height="24" p-id="6498" t="1760505170499" version="1.1" viewBox="0 0 24 24" xmlns="http://www.w3.org/2000/svg">
 <path d="m4.4193 12.848c0.0429 0.1032 0.1437 0.17031 0.2555 0.17031 0.03675-1.5e-4 0.07305-0.0075 0.10695-0.02175l3.3212-1.3924c0.22293-0.0939 0.22662-0.40846 6e-3 -0.50754l-3.3212-1.4903c-0.1398-0.06465-0.30564-3e-3 -0.36872 0.13785-0.06315 0.14055 9e-4 0.30566 0.1422 0.36708l2.7392 1.2293-2.7328 1.1454c-0.1407 0.0591-0.20708 0.22106-0.1482 0.36192zm3.8454 0.28272h-3.5899c-0.15286 0-0.27678 0.1239-0.27678 0.27676s0.1239 0.27678 0.27678 0.27678h3.5899c0.15285 0 0.27676-0.1239 0.27676-0.27678 0-0.15285-0.1239-0.27676-0.27676-0.27676zm0 0.88863h-3.5899c-0.15286 0-0.27678 0.1239-0.27678 0.27678 0 0.15285 0.1239 0.27676 0.27678 0.27676h3.5899c0.15285 0 0.27676-0.1239 0.27676-0.27676s-0.1239-0.27678-0.27676-0.27678zm10.663-4.2878-2.9989 1.3136c-0.21668 0.09495-0.22209 0.40032-9e-3 0.50288l2.9993 1.4413c0.0372 0.0183 0.07815 0.02775 0.1197 0.02775 0.1293 1.5e-4 0.24144-0.0891 0.2702-0.21518 0.0288-0.126-0.0336-0.25518-0.15012-0.3111l-2.456-1.1794 2.4488-1.0717c0.14025-0.0618 0.20386-0.2257 0.14205-0.36599-0.0618-0.14025-0.22569-0.20385-0.36597-0.14205zm0.11115 3.3992h-3.3323c-0.15286 0-0.27678 0.1239-0.27678 0.27676s0.1239 0.27678 0.27678 0.27678h3.3322c0.15285 0 0.27676-0.1239 0.27676-0.27678 0-0.15285-0.1239-0.27676-0.27676-0.27676zm0 0.88863h-3.3323c-0.15286 0-0.27678 0.1239-0.27678 0.27678 0 0.15285 0.1239 0.27676 0.27678 0.27676h3.3322c0.15285 0 0.27676-0.1239 0.27676-0.27676s-0.1239-0.27678-0.27676-0.27678zm-5.2428-2.9325h-3.6657c-0.2117-3e-4 -0.34505 0.22786-0.24098 0.4122l1.8309 3.2654c0.10575 0.18861 0.37714 0.18861 0.48285 0l1.8309-3.2654c0.1035-0.18452-0.02985-0.41226-0.24142-0.4122zm-1.8309 2.9768-1.36-2.4232h2.72z" stroke="currentColor" fill="currentColor" stroke-width="0.2" p-id="6499"/>
 <path d="m20.419 5.5649c1.1406-3e-4 2.0654 0.9245 2.0651 2.0651v9.3249c3e-4 1.1406-0.92448 2.0654-2.0651 2.0651h-7.9411l-2.4641 1.8965c-0.5778 0.44538-1.3711-0.16694-1.0866-0.83925l0.44793-1.0573h-6.0305c-1.141 3e-4 -2.0658-0.925-2.0651-2.066v-9.3249c-3e-4 -1.1406 0.9245-2.0654 2.0651-2.0651l6.1843-0.018c0.25479-0.4079 0.65307-0.84761 1.0852-1.117-0.60328-0.75834-1.9773-2.1711-1.853-2.2255 0.14144-0.061936 1.4265 1.4327 2.0327 2.1742 0.24685-0.11132 0.71385-0.21396 0.95501-0.21381 0.34677-0.00105 0.73327-0.010821 1.212 0.12425 0.58453-0.80869 1.6071-2.202 1.7294-2.142 0.1241 0.06082-1.0284 1.3325-1.6231 2.176 0.4626 0.24281 1.0458 0.88415 1.1991 1.2248l6.1527 0.018z" stroke="currentColor" fill="none" p-id="6500"/>
</svg>
